<svg xmlns="http://www.w3.org/2000/svg" xmlns:xlink="http://www.w3.org/1999/xlink" width="575.011" height="570.548" viewBox="0 0 575.011 570.548">
  <defs>
    <clipPath id="clip-path">
      <path id="Trazado_58" data-name="Trazado 58" d="M508.5,98.084a1.725,1.725,0,0,0-1.085.775l-13.553,21.689a1.744,1.744,0,0,0,.553,2.4l10.008,6.252,1.844-2.954-8.528-5.329,11.707-18.736,25.115,15.694-11.708,18.735-8.528-5.328-1.847,2.953,10.007,6.251a1.749,1.749,0,0,0,.927.266,1.735,1.735,0,0,0,1.473-.819l13.554-21.691a1.741,1.741,0,0,0-.554-2.4L509.819,98.3a1.735,1.735,0,0,0-1.316-.22" transform="translate(-493.599 -98.039)" fill="#bae4f0"/>
    </clipPath>
    <clipPath id="clip-path-2">
      <path id="Trazado_63" data-name="Trazado 63" d="M363.41,200.15l-.05.081a4.128,4.128,0,0,0,1.279,5.6l.129.08a4.127,4.127,0,0,0,4.33-7.025l-.053-.033a4.126,4.126,0,0,0-5.636,1.3" transform="translate(-362.761 -198.244)" fill="#bae4f0"/>
    </clipPath>
    <clipPath id="clip-path-4">
      <path id="Trazado_90" data-name="Trazado 90" d="M454.538,309.62a2.633,2.633,0,0,1,2.634-2.634h15.806v5.269H457.172a2.632,2.632,0,0,1-2.634-2.635m21.074-2.634h22.393a2.635,2.635,0,0,1,0,5.269H475.612Zm-28.977-1.975a3.293,3.293,0,1,1,3.293,3.292,3.292,3.292,0,0,1-3.293-3.292m18.44-11.2h7.9v10.538h-7.9Zm10.537-1.975a1.983,1.983,0,0,1,1.976-1.976h14.325a2.745,2.745,0,0,1,2.8,2.554,2.634,2.634,0,0,1-2.635,2.715H482.2a1.32,1.32,0,0,0-1.318,1.316v7.9h-5.269Zm-10.537-17.123a6.6,6.6,0,0,1,6.587-6.587h1.316c.137,0,.278.008.409.013a5.041,5.041,0,0,1,4.128,3.114l6.832,15.971h-5.037l-3.648-8.528a1.315,1.315,0,1,0-2.418,1.034l3.259,7.633a4.6,4.6,0,0,0-3.473,3.813h-7.954Zm3.293-12.513a3.293,3.293,0,1,1,3.293,3.291,3.293,3.293,0,0,1-3.293-3.291m-2.635,0a5.919,5.919,0,0,0,1.824,4.268,9.221,9.221,0,0,0-5.117,8.245v29.637h-5.268a5.379,5.379,0,0,0-1.344.178,5.935,5.935,0,1,0-3.839,6.032,5.28,5.28,0,0,0,5.183,4.327h40.833a5.269,5.269,0,0,0,0-10.537H483.514v-6.586h8.563a5.28,5.28,0,0,0,5.27-5.427,5.4,5.4,0,0,0-5.434-5.111h-4.7l-7.269-17a7.828,7.828,0,0,0-3.892-4.051,5.923,5.923,0,1,0-10.315-3.971" transform="translate(-444 -256.276)" fill="#bae4f0"/>
    </clipPath>
    <clipPath id="clip-path-5">
      <path id="Trazado_92" data-name="Trazado 92" d="M152.958,193.722v1.862h-1.074Zm-9.921,6.965a1.63,1.63,0,0,1,0-1.646l5.424-9.384h3.8l-3.8,6.587a1.318,1.318,0,0,0,1.138,1.976h3.357v3.293h-8.491a1.629,1.629,0,0,1-1.43-.825m12.555,12.019v-23.05h3.952v23.05a1.976,1.976,0,1,1-3.952,0m-25.684-36.88a1.983,1.983,0,0,1,1.976-1.976h14.489V177.8H131.884a1.983,1.983,0,0,1-1.976-1.976m19.1-1.976h10.537v13.172H149.007Zm13.172,0h14.489a1.976,1.976,0,0,1,0,3.952H162.179Zm-11.856-6.586a3.952,3.952,0,1,1,3.953,3.953,3.956,3.956,0,0,1-3.953-3.953m3.953-6.586a6.574,6.574,0,0,0-5.256,10.538H131.883a4.609,4.609,0,1,0,0,9.218h14.489V188l-5.611,9.722a4.281,4.281,0,0,0,3.707,6.422h8.49v8.56a4.611,4.611,0,1,0,9.222,0V180.437h14.489a4.609,4.609,0,1,0,0-9.218H159.531a6.574,6.574,0,0,0-5.255-10.538Z" transform="translate(-127.272 -160.68)" fill="#bae4f0"/>
    </clipPath>
  </defs>
  <g id="Grupo_259" data-name="Grupo 259" transform="translate(106 -173.169)" opacity="0.49">
    <g id="Grupo_54" data-name="Grupo 54" transform="translate(84.647 701.001)">
      <g id="Grupo_34" data-name="Grupo 34" transform="translate(0 0)">
        <g id="Grupo_33" data-name="Grupo 33" clip-path="url(#clip-path)">
          <rect id="Rectángulo_18" data-name="Rectángulo 18" width="45.225" height="42.714" transform="translate(-0.059)" fill="#bae4f0"/>
        </g>
      </g>
      <path id="Trazado_59" data-name="Trazado 59" d="M505.578,131.052a1.267,1.267,0,0,1-1.074-1.939l3.064-4.9,2.149,1.343-3.064,4.9a1.268,1.268,0,0,1-1.075.595m.512-7.765.923-1.478-.923,1.478m.927-3.219a1.785,1.785,0,0,0-.4.045,1.728,1.728,0,0,0-1.086.773l-.673,1.076-1.846,2.954-1.468,2.35a4.751,4.751,0,1,0,8.057,5.036l1.469-2.351L512.922,127l.673-1.075a1.742,1.742,0,0,0-.554-2.4l-5.1-3.189a1.721,1.721,0,0,0-.919-.265" transform="translate(-492.193 -93.753)" fill="#bae4f0"/>
      <path id="Trazado_60" data-name="Trazado 60" d="M504.288,111.39a1.742,1.742,0,0,0-.926,3.219l5.1,3.189a1.742,1.742,0,1,0,1.847-2.954l-5.1-3.191a1.742,1.742,0,0,0-.921-.264" transform="translate(-491.859 -95.442)" fill="#bae4f0"/>
      <path id="Trazado_61" data-name="Trazado 61" d="M506.957,107.118a1.742,1.742,0,0,0-.926,3.219l5.1,3.189a1.742,1.742,0,1,0,1.847-2.954l-5.1-3.191a1.742,1.742,0,0,0-.921-.264" transform="translate(-491.339 -96.273)" fill="#bae4f0"/>
    </g>
    <g id="Grupo_36" data-name="Grupo 36" transform="translate(453.955 203.122)">
      <g id="Grupo_35" data-name="Grupo 35" clip-path="url(#clip-path-2)">
        <path id="Trazado_62" data-name="Trazado 62" d="M366.893,198.244a4.128,4.128,0,0,0-3.484,1.906l-.042.067a4.131,4.131,0,0,0,1.285,5.622l.1.062a4.127,4.127,0,0,0,5.629-1.327l.02-.033a4.128,4.128,0,0,0-3.506-6.3" transform="translate(-362.761 -198.244)" fill="#bae4f0"/>
      </g>
    </g>
    <g id="Grupo_56" data-name="Grupo 56" transform="translate(-27.446 637.936)">
      <g id="Grupo_35-2" data-name="Grupo 35" transform="translate(0 0)" clip-path="url(#clip-path-2)">
        <path id="Trazado_62-2" data-name="Trazado 62" d="M366.893,198.244a4.128,4.128,0,0,0-3.484,1.906l-.042.067a4.131,4.131,0,0,0,1.285,5.622l.1.062a4.127,4.127,0,0,0,5.629-1.327l.02-.033a4.128,4.128,0,0,0-3.506-6.3" transform="translate(-362.761 -198.244)" fill="#bae4f0"/>
      </g>
    </g>
    <path id="Trazado_64" data-name="Trazado 64" d="M315.187,173.169a1.767,1.767,0,0,0-.394.045,1.735,1.735,0,0,0-1.086.774l-13.553,21.691a1.742,1.742,0,0,0,.553,2.4l10.007,6.252,1.847-2.955-8.528-5.329,11.705-18.735,25.114,15.693-11.7,18.736-8.529-5.33-1.847,2.955,10.005,6.252a1.754,1.754,0,0,0,.927.264,1.705,1.705,0,0,0,.388-.044,1.75,1.75,0,0,0,1.086-.774l13.553-21.689a1.739,1.739,0,0,0-.555-2.4l-28.069-17.541a1.738,1.738,0,0,0-.92-.265" transform="translate(78.962)" fill="#bae4f0"/>
    <path id="Trazado_65" data-name="Trazado 65" d="M311.868,206.181a1.265,1.265,0,0,1-1.073-1.938l3.063-4.9,2.148,1.343-3.062,4.9a1.267,1.267,0,0,1-1.076.595m.511-7.763.923-1.476-.923,1.476m.926-3.219a1.708,1.708,0,0,0-.394.045,1.725,1.725,0,0,0-1.085.774l-.671,1.075-1.847,2.955L307.84,202.4a4.751,4.751,0,1,0,8.058,5.036l1.467-2.35,1.847-2.955.672-1.075a1.741,1.741,0,0,0-.555-2.4l-5.1-3.189a1.725,1.725,0,0,0-.92-.265" transform="translate(80.369 4.286)" fill="#bae4f0"/>
    <path id="Trazado_66" data-name="Trazado 66" d="M310.577,186.52a1.743,1.743,0,0,0-.926,3.22l5.1,3.189a1.742,1.742,0,0,0,1.847-2.955l-5.1-3.189a1.733,1.733,0,0,0-.921-.265" transform="translate(80.702 2.597)" fill="#bae4f0"/>
    <path id="Trazado_67" data-name="Trazado 67" d="M313.247,182.247a1.742,1.742,0,0,0-.925,3.219l5.1,3.189a1.742,1.742,0,0,0,1.846-2.954l-5.1-3.189a1.74,1.74,0,0,0-.922-.265" transform="translate(81.222 1.766)" fill="#bae4f0"/>
    <g id="Grupo_53" data-name="Grupo 53" transform="translate(424.157 602.422)">
      <path id="Trazado_68" data-name="Trazado 68" d="M398.734,509.36a.871.871,0,0,0-.122,1.733l2.743.386a.851.851,0,0,0,.123.008.871.871,0,0,0,.119-1.733l-2.741-.386a.834.834,0,0,0-.122-.008" transform="translate(-382.278 -482.069)" fill="#bae4f0"/>
      <path id="Trazado_69" data-name="Trazado 69" d="M405.62,510.328a.872.872,0,0,0-.462,1.61.888.888,0,0,0,.34.123l2.741.386a.873.873,0,0,0,.984-.741.872.872,0,0,0-.4-.861.89.89,0,0,0-.34-.123l-2.741-.386a.843.843,0,0,0-.122-.008" transform="translate(-380.938 -481.881)" fill="#bae4f0"/>
      <path id="Trazado_70" data-name="Trazado 70" d="M412.5,511.3a.871.871,0,0,0-.119,1.733l2.742.386a1.1,1.1,0,0,0,.123.008.871.871,0,0,0,.459-1.61.835.835,0,0,0-.338-.123l-2.743-.386a.862.862,0,0,0-.123-.008" transform="translate(-379.599 -481.693)" fill="#bae4f0"/>
      <path id="Trazado_71" data-name="Trazado 71" d="M401.153,492.144a.871.871,0,0,0-.461,1.61.881.881,0,0,0,.34.123l2.741.387a1.046,1.046,0,0,0,.121.008.872.872,0,0,0,.463-1.611.894.894,0,0,0-.342-.123l-2.741-.386a.835.835,0,0,0-.122-.008" transform="translate(-381.807 -485.419)" fill="#bae4f0"/>
      <path id="Trazado_72" data-name="Trazado 72" d="M391.846,508.393a.871.871,0,0,0-.46,1.609.844.844,0,0,0,.34.124l2.743.386a.859.859,0,0,0,.123.008.872.872,0,0,0,.119-1.734l-2.743-.385a.862.862,0,0,0-.123-.008" transform="translate(-383.617 -482.258)" fill="#bae4f0"/>
      <path id="Trazado_73" data-name="Trazado 73" d="M394.266,491.177a.871.871,0,0,0-.119,1.733l2.743.386a1.047,1.047,0,0,0,.122.008.871.871,0,0,0,.459-1.61.858.858,0,0,0-.339-.123l-2.743-.386a.835.835,0,0,0-.122-.008" transform="translate(-383.147 -485.607)" fill="#bae4f0"/>
      <path id="Trazado_74" data-name="Trazado 74" d="M408.039,493.112a.871.871,0,0,0-.119,1.734l2.741.385a.836.836,0,0,0,.122.01.872.872,0,0,0,.119-1.736l-2.742-.385a.834.834,0,0,0-.122-.008" transform="translate(-380.467 -485.23)" fill="#bae4f0"/>
      <path id="Trazado_75" data-name="Trazado 75" d="M414.926,494.08a.871.871,0,0,0-.122,1.733l2.743.385a.852.852,0,0,0,.123.01.871.871,0,0,0,.119-1.734l-2.743-.385a.807.807,0,0,0-.121-.008" transform="translate(-379.128 -485.042)" fill="#bae4f0"/>
      <path id="Trazado_76" data-name="Trazado 76" d="M392.583,516.095a.871.871,0,0,0-.862.749l-.386,2.743a.872.872,0,0,0,.4.86.856.856,0,0,0,.339.124l27.421,3.854a4.339,4.339,0,0,0,4.28-2,4.309,4.309,0,0,0,.608-1.656.871.871,0,0,1-.422.6l-.031.018a1.02,1.02,0,0,1-.151.062c-.026.008-.054.014-.081.02a.675.675,0,0,1-.085.012.657.657,0,0,1-.085,0h-.067l-.057-.006a.851.851,0,0,1-.339-.124l0,0-.019-.012-.006,0-.207-.2a.884.884,0,0,1-.158-.35l0-.016v0l-.007-.254a2.584,2.584,0,0,1-2.559,2.211,2.5,2.5,0,0,1-.363-.026l-26.559-3.733.265-1.879a.871.871,0,0,0-.4-.86.858.858,0,0,0-.339-.124.835.835,0,0,0-.122-.008" transform="translate(-383.549 -480.759)" fill="#bae4f0"/>
      <path id="Trazado_77" data-name="Trazado 77" d="M390.928,486.514a.847.847,0,0,0-.52.176.856.856,0,0,0-.34.575l-1.419,10.106,1.724.241,1.3-9.243,32.042,4.5a4.66,4.66,0,0,1,3.972,5.27L424.22,522.81a4.3,4.3,0,0,0-.753-.6h0a4.339,4.339,0,0,0-1.691-.614l-34.1-4.793,1.3-9.243-1.724-.242-1.42,10.107a.868.868,0,0,0,.167.645l.233.215a.878.878,0,0,0,.34.124l34.962,4.912a2.588,2.588,0,0,1,2.211,2.873l-.007.054,0,.019.008.254v0l0,.016a.877.877,0,0,0,.156.351l.208.2,0,0,.019.013,0,0a.869.869,0,0,0,.339.123l.059.007h.066c.029,0,.057,0,.085,0s.057-.007.085-.013a.6.6,0,0,0,.081-.02.908.908,0,0,0,.151-.062l.031-.018a.866.866,0,0,0,.422-.6l.006-.035.012-.1,3.937-28.012a6.406,6.406,0,0,0-2.951-6.327l0,0-.007,0a6.386,6.386,0,0,0-2.494-.9l-32.9-4.625a.856.856,0,0,0-.124-.008" transform="translate(-384.62 -486.514)" fill="#bae4f0"/>
      <path id="Trazado_78" data-name="Trazado 78" d="M395.87,504.989a3.235,3.235,0,0,1-.465-.033l-8.736-1.227.914-6.5,8.734,1.227a3.283,3.283,0,0,1-.448,6.534m-9.149-7.882.121-.864-.121.864m.119-1.735a.873.873,0,0,0-.861.75l-1.155,8.226a.871.871,0,0,0,.741.984l1.88.264,1.724.242,5.994.843a5.221,5.221,0,0,0,.7.049,5.026,5.026,0,0,0,2.659-9.286l0,0a5.009,5.009,0,0,0-1.963-.712l-5.994-.843-1.724-.241-1.88-.265a.863.863,0,0,0-.123-.008" transform="translate(-384.816 -484.791)" fill="#bae4f0"/>
    </g>
    <g id="Grupo_38" data-name="Grupo 38" transform="translate(-106 407.427)">
      <g id="Grupo_37" data-name="Grupo 37" clip-path="url(#clip-path-4)">
        <path id="Trazado_89" data-name="Trazado 89" d="M471.661,256.275a5.92,5.92,0,0,0-4.1,10.2,9.225,9.225,0,0,0-5.119,8.246v29.637h-5.268a5.377,5.377,0,0,0-1.344.177,5.936,5.936,0,1,0-3.84,6.034,5.282,5.282,0,0,0,5.184,4.327h40.833a5.269,5.269,0,0,0,0-10.537H483.514v-6.587h8.563a5.276,5.276,0,0,0,5.269-5.424,5.4,5.4,0,0,0-5.433-5.113h-4.7l-7.27-17a7.821,7.821,0,0,0-3.892-4.049,5.918,5.918,0,0,0-4.388-9.9m0,9.221a3.293,3.293,0,1,1,3.293-3.293,3.292,3.292,0,0,1-3.293,3.293m-6.586,25.685V274.716a6.6,6.6,0,0,1,6.586-6.587h1.318c.139,0,.278.008.409.013a5.041,5.041,0,0,1,4.128,3.115l6.832,15.97h-5.037l-3.648-8.528a1.317,1.317,0,0,0-1.211-.8,1.289,1.289,0,0,0-.515.107,1.309,1.309,0,0,0-.692,1.726l3.26,7.633a4.6,4.6,0,0,0-3.474,3.813Zm10.537,13.171V291.839a1.984,1.984,0,0,1,1.976-1.977h14.325a2.746,2.746,0,0,1,2.8,2.555,2.632,2.632,0,0,1-2.635,2.714H482.2a1.32,1.32,0,0,0-1.316,1.318v7.9Zm-10.537-10.537h7.9v10.537h-7.9ZM449.929,308.3a3.293,3.293,0,1,1,3.292-3.292,3.293,3.293,0,0,1-3.292,3.292m25.684,3.952v-5.269h22.393a2.635,2.635,0,0,1,0,5.269Zm-18.44,0a2.635,2.635,0,0,1,0-5.269h15.806v5.269Z" transform="translate(-444 -256.276)" fill="#bae4f0"/>
      </g>
    </g>
    <g id="Grupo_40" data-name="Grupo 40" transform="translate(-50.726 207.227)">
      <g id="Grupo_39" data-name="Grupo 39" transform="translate(0)" clip-path="url(#clip-path-5)">
        <path id="Trazado_91" data-name="Trazado 91" d="M154.276,160.68a6.574,6.574,0,0,0-5.256,10.538H131.883a4.609,4.609,0,1,0,0,9.218h14.489V188l-5.611,9.721a4.282,4.282,0,0,0,3.708,6.422h8.49v8.561a4.61,4.61,0,0,0,9.219,0V180.437h14.49a4.609,4.609,0,1,0,0-9.218H159.531a6.573,6.573,0,0,0-5.255-10.538m0,10.538a3.952,3.952,0,1,1,3.952-3.953,3.957,3.957,0,0,1-3.952,3.953m7.9,6.584v-3.95h14.49a1.975,1.975,0,1,1,0,3.95Zm-13.171-3.95h10.537v13.171H149.007Zm-17.123,3.95a1.975,1.975,0,1,1,0-3.95h14.489v3.95Zm25.685,36.882a1.983,1.983,0,0,1-1.976-1.976V189.657h3.95v23.051a1.982,1.982,0,0,1-1.975,1.976m-13.1-13.171a1.647,1.647,0,0,1-1.43-2.47l5.423-9.386h3.8l-3.8,6.587a1.318,1.318,0,0,0,1.138,1.976h3.358v3.293Zm7.417-5.929,1.073-1.862v1.862Z" transform="translate(-127.272 -160.68)" fill="#bae4f0"/>
      </g>
    </g>
    <g id="Grupo_55" data-name="Grupo 55" transform="translate(324.36 417.466)">
      <g id="Grupo_39-2" data-name="Grupo 39" transform="translate(0 0)" clip-path="url(#clip-path-5)">
        <path id="Trazado_91-2" data-name="Trazado 91" d="M154.276,160.68a6.574,6.574,0,0,0-5.256,10.538H131.883a4.609,4.609,0,1,0,0,9.218h14.489V188l-5.611,9.721a4.282,4.282,0,0,0,3.708,6.422h8.49v8.561a4.61,4.61,0,0,0,9.219,0V180.437h14.49a4.609,4.609,0,1,0,0-9.218H159.531a6.573,6.573,0,0,0-5.255-10.538m0,10.538a3.952,3.952,0,1,1,3.952-3.953,3.957,3.957,0,0,1-3.952,3.953m7.9,6.584v-3.95h14.49a1.975,1.975,0,1,1,0,3.95Zm-13.171-3.95h10.537v13.171H149.007Zm-17.123,3.95a1.975,1.975,0,1,1,0-3.95h14.489v3.95Zm25.685,36.882a1.983,1.983,0,0,1-1.976-1.976V189.657h3.95v23.051a1.982,1.982,0,0,1-1.975,1.976m-13.1-13.171a1.647,1.647,0,0,1-1.43-2.47l5.423-9.386h3.8l-3.8,6.587a1.318,1.318,0,0,0,1.138,1.976h3.358v3.293Zm7.417-5.929,1.073-1.862v1.862Z" transform="translate(-127.272 -160.68)" fill="#bae4f0"/>
      </g>
    </g>
  </g>
</svg>
