<svg xmlns="http://www.w3.org/2000/svg" width="78.791" height="79.801" viewBox="0 0 78.791 79.801">
  <g id="message" transform="translate(1.077 0.691)">
    <path id="Shape" d="M21.551,57.669h0a3.725,3.725,0,0,1-3.57-4.8,16.982,16.982,0,0,0,.64-6.225A23.584,23.584,0,0,1,23.572,0H37.293a23.6,23.6,0,1,1,0,47.2h-2.44a23.885,23.885,0,0,1-5.545,6.218,32.712,32.712,0,0,1-6.072,3.847A3.745,3.745,0,0,1,21.551,57.669ZM23.572,4.04a19.585,19.585,0,0,0-2.856,38.9,1.99,1.99,0,0,1,1.691,1.678,21.309,21.309,0,0,1-.435,8.8c3.25-1.717,7.62-4.7,9.968-9.175a2.013,2.013,0,0,1,1.734-1h3.641a19.6,19.6,0,1,0,0-39.2H23.572Z" transform="translate(0.347 0.559)" fill="#85d4ed" stroke="#85d4ed" stroke-miterlimit="10" stroke-width="2.5"/>
    <path id="Path" d="M44.142,16.49a17.809,17.809,0,0,1-13.6,17.222,11.81,11.81,0,0,0,.481,3.938,3.255,3.255,0,0,1-4.591,3.841,21.686,21.686,0,0,1-8.538-7.3H16.423A17.706,17.706,0,0,1,.167,23.546a2,2,0,1,1,3.672-1.6A13.714,13.714,0,0,0,16.423,30.2h2.625a2,2,0,0,1,1.769,1.047,15.647,15.647,0,0,0,5.975,5.862,16.312,16.312,0,0,1-.056-5.4,2,2,0,0,1,1.688-1.678A13.713,13.713,0,0,0,31.479,3.712,2,2,0,0,1,32.951.049,17.6,17.6,0,0,1,44.142,16.49Z" transform="translate(32.321 35.951)" fill="#bae4f0" stroke="#bae4f0" stroke-miterlimit="10" stroke-width="2.5"/>
    <path id="Path-2" data-name="Path" d="M.266,6.856a2,2,0,0,1,2.728-.738A17.081,17.081,0,0,1,7.579,9.959,47.477,47.477,0,0,1,17.8.359a2,2,0,1,1,2.291,3.288A43.508,43.508,0,0,0,9.178,14.528a2.008,2.008,0,0,1-1.641.856H7.45a2.01,2.01,0,0,1-1.65-1A13.049,13.049,0,0,0,1,9.585,2,2,0,0,1,.266,6.856Z" transform="translate(20.318 16.441)" fill="#bae4f0" stroke="#bae4f0" stroke-miterlimit="10" stroke-width="2.5"/>
  </g>
</svg>
