<svg xmlns="http://www.w3.org/2000/svg" width="67.958" height="73.524" viewBox="0 0 67.958 73.524">
  <g id="person" transform="translate(-0.085)">
    <path id="Path" d="M2.136,4.429H65.819c2.852,0,2.852-4.429,0-4.429H2.136C-.707,0-.716,4.429,2.136,4.429Z" transform="translate(0.085 8.042)" fill="#bae4f0"/>
    <circle id="Oval" cx="7.334" cy="7.334" r="7.334" transform="translate(45.434 2.214)" fill="#fff"/>
    <path id="Shape" d="M9.545,19.088c-.147,0-.286,0-.413-.01A9.637,9.637,0,0,1,0,9.548,9.672,9.672,0,0,1,9.557,0a9.093,9.093,0,0,1,6.47,2.617A10.415,10.415,0,0,1,19.043,8.9a2.529,2.529,0,0,1,.062.647,2.579,2.579,0,0,1-.089.673,10.384,10.384,0,0,1-3.034,6.267,9.206,9.206,0,0,1-6.437,2.6h0ZM9.4,4.606A4.754,4.754,0,0,0,4.429,9.548,4.754,4.754,0,0,0,9.4,14.49a5.085,5.085,0,0,0,5.272-4.942A5.085,5.085,0,0,0,9.4,4.606Z" transform="translate(43.211)" fill="#58b1cb"/>
    <path id="Path-2" data-name="Path" d="M2.136,4.429H65.819c2.852,0,2.852-4.429,0-4.429H2.136C-.707,0-.716,4.429,2.136,4.429Z" transform="translate(0.085 62.487)" fill="#bae4f0"/>
    <circle id="Oval-2" data-name="Oval" cx="7.334" cy="7.334" r="7.334" transform="translate(45.434 56.659)" fill="#fff"/>
    <path id="Shape-2" data-name="Shape" d="M9.062,19.035c-.147,0-.286,0-.414-.01A9.539,9.539,0,0,1,9.073,0a9.124,9.124,0,0,1,6.47,2.6,10.333,10.333,0,0,1,3.016,6.262,2.489,2.489,0,0,1,.062.647,2.631,2.631,0,0,1-.088.664,9.642,9.642,0,0,1-9.47,8.866h0ZM8.921,4.561A4.755,4.755,0,0,0,3.945,9.5a4.755,4.755,0,0,0,4.973,4.945A5.087,5.087,0,0,0,14.192,9.5,5.084,5.084,0,0,0,8.921,4.561Z" transform="translate(43.695 54.489)" fill="#58b1cb"/>
    <path id="Path-3" data-name="Path" d="M65.819,0H2.136c-2.843,0-2.852,4.429,0,4.429H65.819C68.671,4.429,68.671,0,65.819,0Z" transform="translate(0.085 34.543)" fill="#bae4f0"/>
    <circle id="Oval-3" data-name="Oval" cx="7.334" cy="7.334" r="7.334" transform="translate(8.031 30.15)" fill="#fff"/>
    <path id="Shape-3" data-name="Shape" d="M9.752,19.08h0l-.2,0a9.093,9.093,0,0,1-6.474-2.617A10.419,10.419,0,0,1,.066,10.177,2.118,2.118,0,0,1,0,9.53a2.227,2.227,0,0,1,.062-.664A10.346,10.346,0,0,1,3.1,2.6,9.215,9.215,0,0,1,9.535,0c.137,0,.277,0,.415.009V0a9.541,9.541,0,0,1-.2,19.08ZM9.7,4.594a5.086,5.086,0,0,0-5.27,4.945A5.086,5.086,0,0,0,9.7,14.485a5.134,5.134,0,0,0,3.425-1.233,4.791,4.791,0,0,0,1.543-3.712,4.791,4.791,0,0,0-1.543-3.712A5.134,5.134,0,0,0,9.7,4.594Z" transform="translate(5.813 27.944)" fill="#58b1cb"/>
    <path id="Path-4" data-name="Path" d="M32.141,2.214A2.214,2.214,0,0,0,29.927,0H2.142c-2.852,0-2.861,4.429,0,4.429H29.927A2.214,2.214,0,0,0,32.141,2.214Z" transform="translate(0.087 34.561)" fill="#71cfeb"/>
    <circle id="Oval-4" data-name="Oval" cx="7.334" cy="7.334" r="7.334" transform="translate(8.031 30.15)" fill="#fff"/>
    <path id="Shape-4" data-name="Shape" d="M9.552,19.087A9.092,9.092,0,0,1,3.078,16.47,10.42,10.42,0,0,1,.066,10.185,2.108,2.108,0,0,1,0,9.539a2.227,2.227,0,0,1,.062-.664A10.234,10.234,0,0,1,3.046,2.61,9.083,9.083,0,0,1,9.5.013c.1,0,.2,0,.3,0L9.852,0a9.548,9.548,0,0,1,6.334,16.31A9.5,9.5,0,0,1,9.552,19.087ZM9.658,4.611a5.086,5.086,0,0,0-5.27,4.946A5.086,5.086,0,0,0,9.658,14.5a5.134,5.134,0,0,0,3.426-1.233,4.791,4.791,0,0,0,1.543-3.712,4.792,4.792,0,0,0-1.543-3.713A5.134,5.134,0,0,0,9.658,4.611Z" transform="translate(5.857 27.927)" fill="#71cfeb"/>
    <path id="Path-5" data-name="Path" d="M0,2.214A2.214,2.214,0,0,0,2.214,4.429H30C32.851,4.429,32.851,0,30,0H2.214A2.205,2.205,0,0,0,0,2.214Z" transform="translate(35.904 8.06)" fill="#71cfeb"/>
    <circle id="Oval-5" data-name="Oval" cx="7.334" cy="7.334" r="7.334" transform="translate(45.434 2.232)" fill="#fff"/>
    <path id="Shape-5" data-name="Shape" d="M9.537,19.1h0c-.1,0-.2,0-.3,0A9.635,9.635,0,0,1,.339,12.152,9.619,9.619,0,0,1,9.534,0,9.05,9.05,0,0,1,16,2.627a10.329,10.329,0,0,1,2.974,6.3,2.549,2.549,0,0,1,.061.655,2.554,2.554,0,0,1-.061.656A10.238,10.238,0,0,1,16,16.5,9.082,9.082,0,0,1,9.537,19.1ZM9.381,4.623A4.755,4.755,0,0,0,4.406,9.566a4.754,4.754,0,0,0,4.976,4.942,5.085,5.085,0,0,0,5.272-4.942A5.085,5.085,0,0,0,9.381,4.623Z" transform="translate(43.235)" fill="#71cfeb"/>
    <path id="Path-6" data-name="Path" d="M0,2.214A2.214,2.214,0,0,0,2.214,4.429H30C32.851,4.429,32.851,0,30,0H2.214A2.214,2.214,0,0,0,0,2.214Z" transform="translate(35.904 62.487)" fill="#71cfeb"/>
    <circle id="Oval-6" data-name="Oval" cx="7.334" cy="7.334" r="7.334" transform="translate(45.434 56.659)" fill="#fff"/>
    <path id="Shape-6" data-name="Shape" d="M8.912,19.03h0c-.1,0-.2,0-.3,0A9.548,9.548,0,0,1,8.865,0a9.124,9.124,0,0,1,6.473,2.6,10.337,10.337,0,0,1,3.013,6.262,2.529,2.529,0,0,1,.062.647,2.617,2.617,0,0,1-.062.664,10.238,10.238,0,0,1-2.981,6.265A9.082,9.082,0,0,1,8.912,19.03ZM8.744,4.548h0A4.746,4.746,0,0,0,3.781,9.486a4.754,4.754,0,0,0,4.973,4.945A5.088,5.088,0,0,0,14.027,9.5V9.486A5.1,5.1,0,0,0,8.745,4.549Z" transform="translate(43.859 54.489)" fill="#71cfeb"/>
  </g>
</svg>
