<svg xmlns="http://www.w3.org/2000/svg" width="64.211" height="86.442" viewBox="0 0 64.211 86.442">
  <g id="pinn" transform="translate(0 -0.349)">
    <path id="Shape" d="M32.362,75.518c-4.086,0-7.675-3.674-10.559-6.626l-.446-.455a94.665,94.665,0,0,1-13.013-15.9C4.307,46.1,0,38.516,0,29.892A27.747,27.747,0,0,1,2.511,18.338,29.869,29.869,0,0,1,9.356,8.864,32.427,32.427,0,0,1,19.5,2.432,33.964,33.964,0,0,1,31.92,0h.187l.08.727V0C49.849.077,64.214,13.486,64.211,29.892c0,8.616-4.307,16.2-8.344,22.64A93.211,93.211,0,0,1,37.652,73.29,7.947,7.947,0,0,1,32.362,75.518ZM32.1,5.652c-14.592.03-26.464,10.9-26.464,24.24,0,7.127,3.861,13.876,7.48,19.642a87.9,87.9,0,0,0,18.563,20.71.993.993,0,0,0,.4.184,1.024,1.024,0,0,0,.426-.184,87.15,87.15,0,0,0,18.563-20.71c3.619-5.766,7.48-12.515,7.48-19.642h.017C58.571,16.556,46.7,5.682,32.1,5.652Z" transform="translate(0 0.349)" fill="#85d4ed"/>
    <path id="Shape-2" data-name="Shape" d="M14.055,28.11A14.055,14.055,0,0,1,4.117,4.117,14.055,14.055,0,1,1,23.993,23.993,13.962,13.962,0,0,1,14.055,28.11Zm0-22.968a8.93,8.93,0,1,0,8.93,8.93A8.94,8.94,0,0,0,14.055,5.142Z" transform="translate(18.048 14.752)" fill="#bae4f0"/>
    <path id="Path" d="M26.659,5.135c.821.234,1.382.566,1.446,1.416,0-.255.2-.276-.081,0,.264-.272-.251.187-.06.038a4.168,4.168,0,0,1-.885.425,29.8,29.8,0,0,1-8.271,1.276A44.106,44.106,0,0,1,8.654,7.8,5.749,5.749,0,0,1,5.379,6.4a1.306,1.306,0,0,1-.2-.468c.043.119,0-.026,0-.026s-.14.1-.068.072A2.672,2.672,0,0,0,6.919,2.788,2.609,2.609,0,0,0,3.729.981a5.439,5.439,0,0,0-3.6,3.7A5.788,5.788,0,0,0,1.2,9.439c2.339,3.134,6.609,3.572,10.206,3.857a52.694,52.694,0,0,0,13.183-.459c2.683-.468,5.758-.927,7.54-3.215,2.934-3.768-.106-8.361-4.108-9.509-3.215-.923-4.584,4.074-1.378,5Z" transform="translate(15.463 73.278)" fill="#bae4f0"/>
  </g>
</svg>
