<svg xmlns="http://www.w3.org/2000/svg" xmlns:xlink="http://www.w3.org/1999/xlink" width="65.741" height="65.741" viewBox="0 0 65.741 65.741">
  <defs>
    <filter id="Oval" x="0" y="0" width="65.741" height="65.741" filterUnits="userSpaceOnUse">
      <feOffset dx="2" dy="2" input="SourceAlpha"/>
      <feGaussianBlur stdDeviation="2" result="blur"/>
      <feFlood flood-opacity="0.137"/>
      <feComposite operator="in" in2="blur"/>
      <feComposite in="SourceGraphic"/>
    </filter>
  </defs>
  <g id="_1" data-name="1" transform="translate(-651.525 -2286.827)">
    <g transform="matrix(1, 0, 0, 1, 651.53, 2286.83)" filter="url(#Oval)">
      <circle id="Oval-2" data-name="Oval" cx="26.87" cy="26.87" r="26.87" transform="translate(4 4)" fill="#fff"/>
    </g>
    <g id="Group_12" data-name="Group 12" transform="translate(668.04 2301.133)">
      <path id="Path" d="M31.954.2l-16.4,7.069a6.022,6.022,0,0,1-2.306.394,7.783,7.783,0,0,1-2.369-.349L.89,4.013A3.583,3.583,0,0,1,0,3.588l0,.962c-.06.343.328.71,1.12.97l9.988,3.3A6.806,6.806,0,0,0,15.255,8.8l16.4-7.069c.458-.2.663-.45.628-.707l0-1.023a2.2,2.2,0,0,1-.331.2Z" transform="translate(0 23.669)" fill="#143d6c"/>
      <path id="Shape" d="M13.248,12.488a7.031,7.031,0,0,1-2.134-.311L1.126,8.88C.425,8.649.015,8.326,0,8c-.011-.25.213-.487.63-.667L14.359,1.41l.322,1.3-9.9,4.267c-.154.065-.236.152-.232.244.005.121.155.239.412.324l9.149,3.021a2.569,2.569,0,0,0,.781.114,1.938,1.938,0,0,0,.736-.122L29.34,4.647c.152-.065.234-.152.23-.243-.005-.121-.155-.24-.411-.325L20.009,1.058a.391.391,0,0,0-.084-.012.5.5,0,0,1-.074-.009L20.108,0a6.092,6.092,0,0,1,1.063.237l9.988,3.3c.7.232,1.112.554,1.126.884.011.249-.213.486-.631.666l-16.4,7.071A5.313,5.313,0,0,1,13.248,12.488ZM7.6,9.35a2.336,2.336,0,0,0-.884.146c-.183.079-.282.183-.277.293.007.145.187.287.5.388a3.082,3.082,0,0,0,.937.137,2.33,2.33,0,0,0,.883-.146c.184-.079.283-.184.278-.294-.007-.146-.188-.287-.5-.387A3.074,3.074,0,0,0,7.6,9.35Z" transform="translate(0.001 18.085)" fill="#143d6c"/>
      <path id="Shape-2" data-name="Shape" d="M7.523,23.056h0L5.532,15H4.058A4.062,4.062,0,0,1,0,10.939V4.056A4.062,4.062,0,0,1,4.058,0h6.933a4.062,4.062,0,0,1,4.058,4.056v6.883A4.062,4.062,0,0,1,10.99,15H9.516Zm0-19.9a3,3,0,0,1,1.92,5.3,5.178,5.178,0,0,1,3.175,3.836,2.091,2.091,0,0,0,.5-1.352V4.056a2.129,2.129,0,0,0-2.127-2.127H4.059A2.13,2.13,0,0,0,1.932,4.056v6.883a2.091,2.091,0,0,0,.5,1.352A5.169,5.169,0,0,1,5.607,8.456a3,3,0,0,1,1.917-5.3Z" transform="translate(9.536 0)" fill="#71cfeb"/>
    </g>
  </g>
</svg>
