<svg xmlns="http://www.w3.org/2000/svg" xmlns:xlink="http://www.w3.org/1999/xlink" width="65.741" height="65.741" viewBox="0 0 65.741 65.741">
  <defs>
    <filter id="Oval_Copy" x="0" y="0" width="65.741" height="65.741" filterUnits="userSpaceOnUse">
      <feOffset dx="2" dy="2" input="SourceAlpha"/>
      <feGaussianBlur stdDeviation="2" result="blur"/>
      <feFlood flood-opacity="0.137"/>
      <feComposite operator="in" in2="blur"/>
      <feComposite in="SourceGraphic"/>
    </filter>
  </defs>
  <g id="_2" data-name="2" transform="translate(-652.262 -2349.401)">
    <g transform="matrix(1, 0, 0, 1, 652.26, 2349.4)" filter="url(#Oval_Copy)">
      <circle id="Oval_Copy-2" data-name="Oval Copy" cx="26.87" cy="26.87" r="26.87" transform="translate(4 4)" fill="#fff"/>
    </g>
    <g id="np_market_2271757_000000" transform="translate(669.65 2367.473)">
      <path id="Shape" d="M2.614,5.228A2.586,2.586,0,0,1,0,2.614,2.587,2.587,0,0,1,2.614,0,2.586,2.586,0,0,1,5.228,2.614,2.586,2.586,0,0,1,2.614,5.228Zm0-4.183A1.535,1.535,0,0,0,1.046,2.614,1.534,1.534,0,0,0,2.614,4.183,1.534,1.534,0,0,0,4.183,2.614,1.534,1.534,0,0,0,2.614,1.046Z" transform="translate(2.561 1.045)" fill="#71cfeb" stroke="#71cfeb" stroke-miterlimit="10" stroke-width="0.75"/>
      <path id="Shape-2" data-name="Shape" d="M2.614,5.228A2.586,2.586,0,0,1,0,2.614,2.587,2.587,0,0,1,2.614,0,2.586,2.586,0,0,1,5.228,2.614,2.586,2.586,0,0,1,2.614,5.228Zm0-4.183A1.535,1.535,0,0,0,1.046,2.614,1.534,1.534,0,0,0,2.614,4.183,1.534,1.534,0,0,0,4.183,2.614,1.534,1.534,0,0,0,2.614,1.046Z" transform="translate(21.907 1.045)" fill="#71cfeb" stroke="#71cfeb" stroke-miterlimit="10" stroke-width="0.75"/>
      <path id="Shape-3" data-name="Shape" d="M2.614,5.228A2.586,2.586,0,0,1,0,2.614,2.587,2.587,0,0,1,2.614,0,2.586,2.586,0,0,1,5.228,2.614,2.586,2.586,0,0,1,2.614,5.228Zm0-4.183A1.535,1.535,0,0,0,1.046,2.614,1.534,1.534,0,0,0,2.614,4.183,1.534,1.534,0,0,0,4.183,2.614,1.534,1.534,0,0,0,2.614,1.046Z" transform="translate(2.561 23.004)" fill="#71cfeb" stroke="#71cfeb" stroke-miterlimit="10" stroke-width="0.75"/>
      <path id="Shape-4" data-name="Shape" d="M2.614,5.228A2.586,2.586,0,0,1,0,2.614,2.587,2.587,0,0,1,2.614,0,2.586,2.586,0,0,1,5.228,2.614,2.586,2.586,0,0,1,2.614,5.228Zm0-4.183A1.535,1.535,0,0,0,1.046,2.614,1.534,1.534,0,0,0,2.614,4.183,1.534,1.534,0,0,0,4.183,2.614,1.534,1.534,0,0,0,2.614,1.046Z" transform="translate(21.384 23.004)" fill="#71cfeb" stroke="#71cfeb" stroke-miterlimit="10" stroke-width="0.75"/>
      <path id="Shape-5" data-name="Shape" d="M14.543,29.226h0a3.038,3.038,0,0,1-1.975-.732A3.242,3.242,0,0,1,11.5,26.612,3.1,3.1,0,0,1,14.064,23V19.24a4.561,4.561,0,0,1-2.771-1.32A4.788,4.788,0,0,1,9.933,15.11H6.221a3.124,3.124,0,0,1-2.562,2.562,3.177,3.177,0,0,1-.566.051,3.04,3.04,0,0,1-1.975-.731A3.24,3.24,0,0,1,.051,15.11,3.1,3.1,0,0,1,2.613,11.5a3.177,3.177,0,0,1,.566-.051,3.039,3.039,0,0,1,1.975.731,3.242,3.242,0,0,1,1.066,1.882H9.933a4.56,4.56,0,0,1,1.32-2.771,4.789,4.789,0,0,1,2.81-1.359V6.221A3.124,3.124,0,0,1,11.5,3.659,3.1,3.1,0,0,1,14.064.052,3.174,3.174,0,0,1,14.631,0a3.038,3.038,0,0,1,1.975.732,3.242,3.242,0,0,1,1.066,1.882,3.1,3.1,0,0,1-2.562,3.608V9.934A4.761,4.761,0,0,1,17.92,11.3a4.636,4.636,0,0,1,1.32,2.817H23a3.129,3.129,0,0,1,5.1-1.882,3.092,3.092,0,0,1-1.49,5.438,3.176,3.176,0,0,1-.566.051,3.039,3.039,0,0,1-1.975-.731A3.242,3.242,0,0,1,23,15.11H19.24a4.561,4.561,0,0,1-1.32,2.771,4.788,4.788,0,0,1-2.811,1.359V23a3.129,3.129,0,0,1,0,6.17A3.172,3.172,0,0,1,14.543,29.226Zm.044-5.176a2.092,2.092,0,1,0,2.092,2.092A2.094,2.094,0,0,0,14.587,24.05Zm0-13.072a3.66,3.66,0,1,0,3.66,3.66A3.621,3.621,0,0,0,14.587,10.979Zm11.5,1.569a2.091,2.091,0,1,0,2.092,2.092A2.094,2.094,0,0,0,26.089,12.547Zm-23.005,0a2.091,2.091,0,1,0,2.092,2.092A2.094,2.094,0,0,0,3.084,12.547Zm11.5-11.5a2.091,2.091,0,1,0,2.092,2.092A2.094,2.094,0,0,0,14.587,1.045Z" transform="translate(0 0)" fill="#143d6c" stroke="#143d6c" stroke-miterlimit="10" stroke-width="0.75"/>
    </g>
  </g>
</svg>
