<svg xmlns="http://www.w3.org/2000/svg" xmlns:xlink="http://www.w3.org/1999/xlink" width="65.741" height="65.741" viewBox="0 0 65.741 65.741">
  <defs>
    <filter id="Oval_Copy_2" x="0" y="0" width="65.741" height="65.741" filterUnits="userSpaceOnUse">
      <feOffset dx="2" dy="2" input="SourceAlpha"/>
      <feGaussianBlur stdDeviation="2" result="blur"/>
      <feFlood flood-opacity="0.137"/>
      <feComposite operator="in" in2="blur"/>
      <feComposite in="SourceGraphic"/>
    </filter>
  </defs>
  <g id="_3" data-name="3" transform="translate(-652.262 -2420.074)">
    <g transform="matrix(1, 0, 0, 1, 652.26, 2420.07)" filter="url(#Oval_Copy_2)">
      <circle id="Oval_Copy_2-2" data-name="Oval Copy 2" cx="26.87" cy="26.87" r="26.87" transform="translate(4 4)" fill="#fff"/>
    </g>
    <g id="np_cost_1663678_000000" transform="translate(665.881 2439.215)">
      <path id="Shape" d="M4.9,20.393H0v-9.8H4.287L5.328,6.859a4.521,4.521,0,0,1,.8-1.531L9.86.612A1.674,1.674,0,0,1,11.024,0a1.859,1.859,0,0,1,1.224.429A1.5,1.5,0,0,1,12.554,2.2l-2.51,5.512A4.559,4.559,0,0,0,9.8,8.7V9.92l.306-.367a1.515,1.515,0,0,1,1.325-.706A1.809,1.809,0,0,1,12,8.941a1.508,1.508,0,0,1,.979.857,1.691,1.691,0,0,1,.062,1.347l-1.286,3.368c-.019.113-.038.215-.055.306a2.971,2.971,0,0,0-.068.49,3.345,3.345,0,0,1-1.454,3.009c-.937.588-2.377.85-4.67.85H4.9v1.224ZM1.225,11.819v7.349H3.675V11.819ZM11.085,1.286a.245.245,0,0,0-.244.123L7.1,6.124a3.118,3.118,0,0,0-.551,1.1L4.9,13.105v4.838h.612c2.1,0,3.4-.231,4.1-.727a2.243,2.243,0,0,0,.8-1.967,2.413,2.413,0,0,1,.244-1.1l1.286-3.368a.39.39,0,0,0,0-.368.479.479,0,0,0-.244-.245.465.465,0,0,0-.146-.023.487.487,0,0,0-.4.207L8.574,13.595V8.757l.012-.085A7.469,7.469,0,0,1,8.88,7.287l2.511-5.511a.375.375,0,0,0-.062-.368C11.207,1.286,11.145,1.286,11.085,1.286Z" transform="translate(0 0)" fill="#143d6c" stroke="#143d6c" stroke-miterlimit="10" stroke-width="0.88"/>
      <path id="Shape-2" data-name="Shape" d="M13.155,20.343h-4.9V19.119H7.643c-2.292,0-3.732-.262-4.67-.85a3.344,3.344,0,0,1-1.454-3.008,3.061,3.061,0,0,0-.123-.735L.11,11.157A1.714,1.714,0,0,1,.172,9.81a1.51,1.51,0,0,1,.98-.857,1.647,1.647,0,0,1,.521-.084,1.788,1.788,0,0,1,1.439.758l.244.306V8.708a2.1,2.1,0,0,0-.244-.98L.6,2.216A1.716,1.716,0,0,1,.907.441,1.464,1.464,0,0,1,1.945,0a1.508,1.508,0,0,1,.187.012A1.578,1.578,0,0,1,3.3.624L7.031,5.339a5.235,5.235,0,0,1,.8,1.531l.98,3.675h4.348v9.8ZM9.48,11.77v7.349h2.45V11.77Zm-7.9-1.653h0c-.12.06-.245.122-.245.244a.394.394,0,0,0,0,.368L2.622,14.1a7.1,7.1,0,0,1,.243,1.088l0,.014a2.227,2.227,0,0,0,.8,1.945c.71.512,2.014.75,4.1.75h.49V12.627L6.786,7.116a3.118,3.118,0,0,0-.551-1.1L2.315,1.359a.245.245,0,0,0-.245-.123.245.245,0,0,0-.244.123.291.291,0,0,0-.062.368L4.275,7.238a3.261,3.261,0,0,1,.306,1.409v4.9L2.132,10.361a.777.777,0,0,0-.429-.244H1.581Z" transform="translate(23.589 0.049)" fill="#143d6c" stroke="#143d6c" stroke-miterlimit="10" stroke-width="0.88"/>
      <path id="Shape-3" data-name="Shape" d="M4.287,15.923H3.062V14.576A3.687,3.687,0,0,1,0,10.962H1.225a2.448,2.448,0,0,0,1.837,2.389V8.513A3.732,3.732,0,0,1,0,4.9,3.731,3.731,0,0,1,3.062,1.286V0H4.287V1.286A3.685,3.685,0,0,1,7.349,4.9H6.124A2.378,2.378,0,0,0,4.287,2.572V7.41a3.732,3.732,0,0,1,3.062,3.614,3.731,3.731,0,0,1-3.062,3.613v1.285Zm0-7.226v4.715a2.5,2.5,0,0,0,1.837-2.388A2.379,2.379,0,0,0,4.287,8.7ZM3.062,2.511A2.5,2.5,0,0,0,1.225,4.9,2.379,2.379,0,0,0,3.062,7.226Z" transform="translate(14.698 2.021)" fill="#71cfeb" stroke="#71cfeb" stroke-miterlimit="10" stroke-width="0.88"/>
    </g>
  </g>
</svg>
