<svg xmlns="http://www.w3.org/2000/svg" xmlns:xlink="http://www.w3.org/1999/xlink" width="65.741" height="65.741" viewBox="0 0 65.741 65.741">
  <defs>
    <filter id="Oval_Copy_3" x="0" y="0" width="65.741" height="65.741" filterUnits="userSpaceOnUse">
      <feOffset dx="2" dy="2" input="SourceAlpha"/>
      <feGaussianBlur stdDeviation="2" result="blur"/>
      <feFlood flood-opacity="0.137"/>
      <feComposite operator="in" in2="blur"/>
      <feComposite in="SourceGraphic"/>
    </filter>
  </defs>
  <g id="_4" data-name="4" transform="translate(-652.262 -2484.857)">
    <g transform="matrix(1, 0, 0, 1, 652.26, 2484.86)" filter="url(#Oval_Copy_3)">
      <circle id="Oval_Copy_3-2" data-name="Oval Copy 3" cx="26.87" cy="26.87" r="26.87" transform="translate(4 4)" fill="#fff"/>
    </g>
    <g id="np_insurance_2051323_000000" transform="translate(671.118 2504.498)">
      <path id="Shape" d="M11.008,25.292H11a1.707,1.707,0,0,1-.58-.1c-1.625-.58-7.087-2.853-9.137-7.733C-.461,13.3.057,6.318.122,5.535c0-1.035,1.032-1.423,1.473-1.589,2.112-.827,7-2.829,8.615-3.733a1.741,1.741,0,0,1,1.67,0c1.681.921,6.588,2.941,8.569,3.722a1.94,1.94,0,0,1,1.484,1.588c.139,2.38.3,8.306-1.218,11.919a12.735,12.735,0,0,1-4.706,5.467,20.265,20.265,0,0,1-4.384,2.267A1.669,1.669,0,0,1,11.008,25.292ZM11,1.163a.625.625,0,0,0-.278.07c-1.573.859-5.588,2.52-7.986,3.512l-.023.009-.734.3c-.612.231-.742.393-.753.58C1.065,8.514,1,13.819,2.383,17.048c1.842,4.386,6.935,6.531,8.452,7.085a.512.512,0,0,0,.371,0c1.506-.545,6.563-2.665,8.418-7.085,1.25-3,1.32-7.861,1.159-11.409,0-.177-.121-.329-.742-.58-2.089-.824-6.965-2.834-8.708-3.791a.616.616,0,0,0-.337-.1h0Z" transform="translate(0 0)" stroke="#143d6c" stroke-miterlimit="10" stroke-width="1.5"/>
      <path id="Path" d="M2.853,6.965a.591.591,0,0,1-.417-.232L.116,3.638a.579.579,0,0,1,.116-.812.591.591,0,0,1,.812.116L2.969,5.516,8.65.171a.578.578,0,1,1,.823.812L3.281,6.78a.588.588,0,0,1-.429.186Z" transform="translate(6.985 9.109)" fill="#71cfeb" stroke="#71cfeb" stroke-miterlimit="10" stroke-width="1"/>
    </g>
  </g>
</svg>
