<svg xmlns="http://www.w3.org/2000/svg" xmlns:xlink="http://www.w3.org/1999/xlink" width="65.741" height="65.741" viewBox="0 0 65.741 65.741">
  <defs>
    <filter id="Oval_Copy_4" x="0" y="0" width="65.741" height="65.741" filterUnits="userSpaceOnUse">
      <feOffset dx="2" dy="2" input="SourceAlpha"/>
      <feGaussianBlur stdDeviation="2" result="blur"/>
      <feFlood flood-opacity="0.137"/>
      <feComposite operator="in" in2="blur"/>
      <feComposite in="SourceGraphic"/>
    </filter>
  </defs>
  <g id="_5" data-name="5" transform="translate(-652.262 -2540.806)">
    <g transform="matrix(1, 0, 0, 1, 652.26, 2540.81)" filter="url(#Oval_Copy_4)">
      <circle id="Oval_Copy_4-2" data-name="Oval Copy 4" cx="26.87" cy="26.87" r="26.87" transform="translate(4 4)" fill="#fff"/>
    </g>
    <g id="np_waiting_1520052_000000" transform="translate(663.718 2558.901)">
      <path id="Shape" d="M9.11,22.775a.633.633,0,0,1-.633-.633V15.817H3.733v6.326a.633.633,0,1,1-1.265,0V15.817H0V13.729a3.079,3.079,0,0,1,.637-1.882,2.813,2.813,0,0,1,1.61-1.028L1.265,2.752A2.89,2.89,0,0,1,4.27,0H8.414a3.13,3.13,0,0,1,2.132.807,2.626,2.626,0,0,1,.874,1.946l-.981,8.066a2.97,2.97,0,0,1,2.246,2.911v2.088H9.743v6.326A.633.633,0,0,1,9.11,22.775ZM2.91,12.02A1.665,1.665,0,0,0,1.3,13.729v.822H11.419v-.822A1.665,1.665,0,0,0,9.806,12.02Z" transform="translate(27.805 4.207)" fill="#143d6c"/>
      <path id="Shape-2" data-name="Shape" d="M9.173,22.775a.633.633,0,0,1-.632-.633V15.817H3.8v6.326a.633.633,0,1,1-1.265,0V15.817H0V13.729a2.97,2.97,0,0,1,2.246-2.911L1.265,2.752A2.89,2.89,0,0,1,4.27,0H8.383a3.129,3.129,0,0,1,2.131.807,2.626,2.626,0,0,1,.874,1.946l-.981,8.066a2.97,2.97,0,0,1,2.246,2.911v2.088H9.806v6.326A.633.633,0,0,1,9.173,22.775ZM2.878,12.02a1.665,1.665,0,0,0-1.613,1.709v.822H11.387v-.822A1.665,1.665,0,0,0,9.774,12.02Z" transform="translate(13.824 4.207)" fill="#143d6c"/>
      <path id="Path" d="M0,1.075A14.972,14.972,0,0,1,1.8,0,3,3,0,0,0,0,1.075Z" transform="translate(1.866 4.302)" fill="#57b0cc"/>
      <path id="Path-2" data-name="Path" d="M0,0A16.071,16.071,0,0,1,2.214,1.36,3.1,3.1,0,0,0,0,0Z" transform="translate(8.794 4.27)" fill="#57b0cc"/>
      <path id="Path-3" data-name="Path" d="M4.618,2.309A2.309,2.309,0,1,1,2.309,0,2.31,2.31,0,0,1,4.618,2.309" transform="translate(3.954 0)" fill="#71cfeb"/>
      <path id="Path-4" data-name="Path" d="M0,4.713a.635.635,0,0,0,.633.633.643.643,0,0,0,.633-.538L1.17,4.523,0,0Z" transform="translate(2.531 21.7)" fill="#71cfeb"/>
      <path id="Path-5" data-name="Path" d="M2.556,9.774a.285.285,0,0,0,.158-.032.614.614,0,0,0,.443-.759L1.734,3.448,1.417,2.183l-.063-.316.6-.854A.654.654,0,0,0,1.8.127.9.9,0,0,0,1.417,0,.66.66,0,0,0,.911.253L.12,1.36a.6.6,0,0,0-.095.506L1.923,9.3a.674.674,0,0,0,.633.474Z" transform="translate(2.98 16.607)" fill="#71cfeb"/>
      <path id="Path-6" data-name="Path" d="M1.258,9.49l2.214-7.4a.669.669,0,0,0-.127-.6L2.239.221A.611.611,0,0,0,1.764,0a.666.666,0,0,0-.411.158.642.642,0,0,0-.063.886l.854.981-.158.569-.253.854L.025,9.11A.64.64,0,0,0,.436,9.9a.4.4,0,0,0,.19.032.688.688,0,0,0,.633-.443Z" transform="translate(6.207 16.576)" fill="#71cfeb"/>
      <path id="Path-7" data-name="Path" d="M0,4.049a.619.619,0,0,0,.6.411.635.635,0,0,0,.633-.633V0L.095,3.859A.273.273,0,0,0,0,4.049Z" transform="translate(8.604 22.554)" fill="#71cfeb"/>
      <path id="Path-8" data-name="Path" d="M.316,0h0A21.514,21.514,0,0,0,0,2.91V4.017a5.847,5.847,0,0,0,.032.728,5.647,5.647,0,0,0,.063.728V5.5c0,.127.032.221.032.348A.608.608,0,0,0,.6,5.283a1.607,1.607,0,0,1,.538-.095,1.83,1.83,0,0,1,1.234.474,1.63,1.63,0,0,1,.411.538h.285a1.4,1.4,0,0,1,.38-.474,1.83,1.83,0,0,1,1.234-.474,2.2,2.2,0,0,1,.791.158.613.613,0,0,0,.506.443,14.985,14.985,0,0,0,.095-2.4V3.385A24.312,24.312,0,0,0,5.725,0a.657.657,0,0,0-.6.664L5.409,4.9H.6L.886.664A.592.592,0,0,0,.316,0Z" transform="translate(3.227 10.122)" fill="#71cfeb"/>
      <path id="Path-9" data-name="Path" d="M.965,12.843h.127a.617.617,0,0,0,.506-.728,20.9,20.9,0,0,1,.474-9.458,8.021,8.021,0,0,1,1.9-1.265L5.109,2.467a.592.592,0,0,0,.443.158.756.756,0,0,0,.443-.158L7.134,1.392a9.18,9.18,0,0,1,1.9,1.265c.348.633,1.423,6.137.506,9.395a.632.632,0,0,0,.443.791,1.37,1.37,0,0,1,.158.032.61.61,0,0,0,.6-.474c1.012-3.606-.158-9.585-.664-10.375A9.371,9.371,0,0,0,7.26.063.924.924,0,0,0,6.975,0a.756.756,0,0,0-.443.158l-1.044.981L4.445.158A.592.592,0,0,0,4,0a.924.924,0,0,0-.285.063A8.837,8.837,0,0,0,.9,2.024,22.645,22.645,0,0,0,.333,12.337a.616.616,0,0,0,.633.506Z" transform="translate(0.68 5.251)" fill="#71cfeb"/>
      <path id="Path-10" data-name="Path" d="M.221,1.265,0,1.993H2.119V0a1.911,1.911,0,0,1-1.8,1.3c0-.032-.032-.032-.095-.032Z" transform="translate(10.534 18.094)" fill="#143d6c"/>
      <path id="Path-11" data-name="Path" d="M1.2.127,1.107,0H0L.316,1.265H.886Z" transform="translate(5.726 18.821)" fill="#143d6c"/>
      <path id="Path-12" data-name="Path" d="M1.93.886a1.076,1.076,0,0,1-.316.032A1.846,1.846,0,0,1,0,0V1.613H2.119Z" transform="translate(0 18.442)" fill="#143d6c"/>
    </g>
  </g>
</svg>
