<svg xmlns="http://www.w3.org/2000/svg" xmlns:xlink="http://www.w3.org/1999/xlink" width="65.741" height="65.741" viewBox="0 0 65.741 65.741">
  <defs>
    <filter id="Oval_Copy_5" x="0" y="0" width="65.741" height="65.741" filterUnits="userSpaceOnUse">
      <feOffset dx="2" dy="2" input="SourceAlpha"/>
      <feGaussianBlur stdDeviation="2" result="blur"/>
      <feFlood flood-opacity="0.137"/>
      <feComposite operator="in" in2="blur"/>
      <feComposite in="SourceGraphic"/>
    </filter>
  </defs>
  <g id="_6" data-name="6" transform="translate(-652.262 -2601.173)">
    <g transform="matrix(1, 0, 0, 1, 652.26, 2601.17)" filter="url(#Oval_Copy_5)">
      <circle id="Oval_Copy_5-2" data-name="Oval Copy 5" cx="26.87" cy="26.87" r="26.87" transform="translate(4 4)" fill="#fff"/>
    </g>
    <g id="person" transform="translate(671.016 2620.632)">
      <path id="Path" d="M.786,1.63H24.227a.816.816,0,0,0,0-1.63H.786A.816.816,0,0,0,.786,1.63Z" transform="translate(0 2.96)" fill="#143d6c"/>
      <circle id="Oval" cx="2.699" cy="2.699" r="2.699" transform="translate(16.693 0.815)" fill="#fff"/>
      <path id="Shape" d="M3.514,7.026h0c-.05,0-.1,0-.152,0A3.553,3.553,0,0,1,0,3.514,3.56,3.56,0,0,1,3.518,0,3.554,3.554,0,0,1,7.009,3.276a.9.9,0,0,1,.023.238A.978.978,0,0,1,7,3.762,3.55,3.55,0,0,1,3.514,7.026ZM3.462,1.7A1.75,1.75,0,0,0,1.63,3.514,1.75,1.75,0,0,0,3.462,5.334,1.871,1.871,0,0,0,5.4,3.514,1.871,1.871,0,0,0,3.462,1.7Z" transform="translate(15.874 0)" fill="#58b1cb"/>
      <path id="Path-2" data-name="Path" d="M.786,1.63H24.227a.816.816,0,0,0,0-1.63H.786A.816.816,0,0,0,.786,1.63Z" transform="translate(0 23.001)" fill="#143d6c"/>
      <circle id="Oval-2" data-name="Oval" cx="2.699" cy="2.699" r="2.699" transform="translate(16.693 20.855)" fill="#fff"/>
      <path id="Shape-2" data-name="Shape" d="M3.336,7.006c-.051,0-.1,0-.153,0A3.511,3.511,0,0,1,3.34,0,3.545,3.545,0,0,1,6.832,3.26a.923.923,0,0,1,.023.238.95.95,0,0,1-.032.244A3.55,3.55,0,0,1,3.336,7.006ZM3.284,1.679A1.75,1.75,0,0,0,1.452,3.5a1.75,1.75,0,0,0,1.831,1.82A1.873,1.873,0,0,0,5.224,3.5,1.872,1.872,0,0,0,3.284,1.679Z" transform="translate(16.052 20.057)" fill="#58b1cb"/>
      <path id="Path-3" data-name="Path" d="M24.227,0H.786a.816.816,0,0,0,0,1.63H24.227A.816.816,0,0,0,24.227,0Z" transform="translate(0 12.715)" fill="#143d6c"/>
      <circle id="Oval-3" data-name="Oval" cx="2.699" cy="2.699" r="2.699" transform="translate(2.925 11.098)" fill="#fff"/>
      <path id="Shape-3" data-name="Shape" d="M3.59,7.023H3.516A3.554,3.554,0,0,1,.024,3.746.8.8,0,0,1,0,3.508a.839.839,0,0,1,.023-.244A3.545,3.545,0,0,1,3.51,0c.051,0,.1,0,.153,0V0A3.512,3.512,0,0,1,3.59,7.023ZM3.571,1.691a1.872,1.872,0,0,0-1.94,1.821,1.872,1.872,0,0,0,1.94,1.82,1.89,1.89,0,0,0,1.261-.454A1.763,1.763,0,0,0,5.4,3.512,1.749,1.749,0,0,0,3.571,1.691Z" transform="translate(2.109 10.286)" fill="#58b1cb"/>
      <path id="Path-4" data-name="Path" d="M11.831.815A.815.815,0,0,0,11.016,0H.789a.815.815,0,0,0,0,1.63H11.016A.815.815,0,0,0,11.831.815Z" transform="translate(0.001 12.721)" fill="#71cfeb"/>
      <circle id="Oval-4" data-name="Oval" cx="2.699" cy="2.699" r="2.699" transform="translate(2.925 11.098)" fill="#fff"/>
      <path id="Shape-4" data-name="Shape" d="M3.515,7.026h0A3.554,3.554,0,0,1,.024,3.749.8.8,0,0,1,0,3.512a.848.848,0,0,1,.023-.245A3.517,3.517,0,0,1,3.5,0l.112,0L3.627,0A3.514,3.514,0,0,1,5.958,6,3.5,3.5,0,0,1,3.515,7.026ZM3.555,1.7a1.871,1.871,0,0,0-1.939,1.82A1.871,1.871,0,0,0,3.555,5.338a1.89,1.89,0,0,0,1.261-.454,1.764,1.764,0,0,0,.568-1.367A1.749,1.749,0,0,0,3.555,1.7Z" transform="translate(2.125 10.279)" fill="#71cfeb"/>
      <path id="Path-5" data-name="Path" d="M0,.815a.815.815,0,0,0,.815.815H11.042a.816.816,0,0,0,0-1.63H.815A.812.812,0,0,0,0,.815Z" transform="translate(13.185 2.967)" fill="#71cfeb"/>
      <circle id="Oval-5" data-name="Oval" cx="2.699" cy="2.699" r="2.699" transform="translate(16.693 0.822)" fill="#fff"/>
      <path id="Shape-5" data-name="Shape" d="M3.508,7.031h0l-.111,0A3.544,3.544,0,0,1,.124,4.473,3.54,3.54,0,0,1,3.507,0,3.526,3.526,0,0,1,6.983,3.286a.95.95,0,0,1,.023.241.95.95,0,0,1-.023.241A3.517,3.517,0,0,1,3.508,7.031ZM3.451,1.7A1.75,1.75,0,0,0,1.62,3.521,1.75,1.75,0,0,0,3.451,5.34a1.871,1.871,0,0,0,1.94-1.819A1.871,1.871,0,0,0,3.451,1.7Z" transform="translate(15.885 0)" fill="#71cfeb"/>
      <path id="Path-6" data-name="Path" d="M0,.815a.815.815,0,0,0,.815.815H11.042a.816.816,0,0,0,0-1.63H.815A.815.815,0,0,0,0,.815Z" transform="translate(13.185 23.001)" fill="#71cfeb"/>
      <circle id="Oval-6" data-name="Oval" cx="2.699" cy="2.699" r="2.699" transform="translate(16.693 20.855)" fill="#fff"/>
      <path id="Shape-6" data-name="Shape" d="M3.28,7,3.169,7a3.515,3.515,0,0,1,.095-7A3.358,3.358,0,0,1,5.646.955,3.805,3.805,0,0,1,6.755,3.26a.894.894,0,0,1,.023.238.948.948,0,0,1-.023.244A3.517,3.517,0,0,1,3.28,7Zm-.061-5.33A1.747,1.747,0,0,0,1.392,3.492a1.75,1.75,0,0,0,1.831,1.82A1.873,1.873,0,0,0,5.164,3.495,1.878,1.878,0,0,0,3.219,1.675Z" transform="translate(16.112 20.057)" fill="#71cfeb"/>
    </g>
  </g>
</svg>
