<svg id="apple-store" xmlns="http://www.w3.org/2000/svg" width="114.221" height="34.32" viewBox="0 0 114.221 34.32">
  <rect id="Rectángulo_12" data-name="Rectángulo 12" width="114.221" height="34.32" rx="9.9" fill="#143d6c"/>
  <text id="Download_on_the" data-name="Download on the" transform="translate(36.465 10.832)" fill="#fff" font-size="7" font-family="ArialMT, Arial" letter-spacing="0.079em"><tspan x="0" y="0">Download on the</tspan></text>
  <text id="App_Store" data-name="App Store" transform="translate(36.465 26.167)" fill="#fff" font-size="15" font-family="SegoeUI, Segoe UI"><tspan x="0" y="0">App Store</tspan></text>
  <path id="Trazado_29" data-name="Trazado 29" d="M33.459,30.573c-.941,1.37-1.915,2.731-3.452,2.76-1.512.029-2-.892-3.723-.892s-2.269.863-3.7.921c-1.484.055-2.612-1.48-3.56-2.844-1.939-2.789-3.418-7.885-1.428-11.324a5.521,5.521,0,0,1,4.664-2.817c1.457-.027,2.833.978,3.723.978s2.562-1.206,4.318-1.029a5.272,5.272,0,0,1,4.124,2.225,5.09,5.09,0,0,0-2.434,4.28,4.964,4.964,0,0,0,3.026,4.545,12.361,12.361,0,0,1-1.562,3.2ZM27.006,12.592a5.073,5.073,0,0,1,3.322-1.7,4.943,4.943,0,0,1-1.174,3.589,4.185,4.185,0,0,1-3.345,1.59A4.7,4.7,0,0,1,27.006,12.592Z" transform="translate(-7.633 -4.991)" fill="#fff"/>
</svg>
