<svg xmlns="http://www.w3.org/2000/svg" xmlns:xlink="http://www.w3.org/1999/xlink" width="481.365" height="477.629" viewBox="0 0 481.365 477.629">
  <defs>
    <clipPath id="clip-path">
      <path id="Trazado_58" data-name="Trazado 58" d="M506.075,98.077a1.444,1.444,0,0,0-.908.649l-11.346,18.157a1.46,1.46,0,0,0,.463,2.01l8.378,5.234,1.544-2.473-7.139-4.461,9.8-15.685,21.025,13.138-9.8,15.684-7.139-4.46-1.546,2.472,8.377,5.233a1.464,1.464,0,0,0,.776.223,1.452,1.452,0,0,0,1.233-.686l11.347-18.158a1.458,1.458,0,0,0-.464-2.01l-23.5-14.683a1.453,1.453,0,0,0-1.1-.184" fill="#bae4f0"/>
    </clipPath>
    <clipPath id="clip-path-2">
      <path id="Trazado_63" data-name="Trazado 63" d="M363.3,199.84l-.042.068a3.456,3.456,0,0,0,1.071,4.688l.108.067a3.454,3.454,0,0,0,3.625-5.881l-.044-.028a3.454,3.454,0,0,0-4.718,1.086" fill="#bae4f0"/>
    </clipPath>
    <clipPath id="clip-path-4">
      <path id="Trazado_90" data-name="Trazado 90" d="M452.822,300.932a2.2,2.2,0,0,1,2.205-2.205h13.232v4.411H455.027a2.2,2.2,0,0,1-2.205-2.206m17.642-2.205H489.21a2.206,2.206,0,0,1,0,4.411H470.464Zm-24.258-1.653a2.757,2.757,0,1,1,2.757,2.756,2.756,2.756,0,0,1-2.757-2.756m15.437-9.374h6.616v8.822h-6.616Zm8.821-1.653a1.66,1.66,0,0,1,1.654-1.654H484.11a2.3,2.3,0,0,1,2.343,2.138,2.205,2.205,0,0,1-2.206,2.273h-8.269a1.1,1.1,0,0,0-1.1,1.1v6.616h-4.411Zm-8.821-14.334a5.521,5.521,0,0,1,5.514-5.514h1.1c.115,0,.233.007.342.011a4.22,4.22,0,0,1,3.456,2.607l5.719,13.37h-4.217l-3.054-7.139a1.1,1.1,0,1,0-2.024.866l2.728,6.39A3.852,3.852,0,0,0,468.3,285.5h-6.659Zm2.757-10.475a2.757,2.757,0,1,1,2.757,2.755,2.757,2.757,0,0,1-2.757-2.755m-2.206,0a4.955,4.955,0,0,0,1.527,3.573,7.719,7.719,0,0,0-4.284,6.9v24.81h-4.41a4.5,4.5,0,0,0-1.125.149,4.968,4.968,0,1,0-3.214,5.05,4.42,4.42,0,0,0,4.339,3.622H489.21a4.41,4.41,0,0,0,0-8.821H477.079v-5.513h7.168a4.42,4.42,0,0,0,4.412-4.543,4.519,4.519,0,0,0-4.549-4.279h-3.938l-6.085-14.234a6.553,6.553,0,0,0-3.258-3.391,4.959,4.959,0,1,0-8.635-3.324" fill="#bae4f0"/>
    </clipPath>
    <clipPath id="clip-path-5">
      <path id="Trazado_92" data-name="Trazado 92" d="M148.775,188.341V189.9h-.9Zm-8.3,5.831a1.365,1.365,0,0,1,0-1.378l4.541-7.856h3.18l-3.18,5.514a1.1,1.1,0,0,0,.953,1.654h2.81v2.757h-7.108a1.364,1.364,0,0,1-1.2-.691m10.51,10.062v-19.3h3.308v19.3a1.654,1.654,0,1,1-3.308,0m-21.5-30.874a1.66,1.66,0,0,1,1.654-1.654h12.129v3.308H131.133a1.66,1.66,0,0,1-1.654-1.654m15.988-1.654h8.821v11.027h-8.821Zm11.027,0h12.129a1.654,1.654,0,0,1,0,3.308H156.494Zm-9.925-5.513a3.308,3.308,0,1,1,3.309,3.309,3.312,3.312,0,0,1-3.309-3.309m3.309-5.513a5.5,5.5,0,0,0-4.4,8.822H131.132a3.858,3.858,0,1,0,0,7.717h12.129v6.334l-4.7,8.139a3.584,3.584,0,0,0,3.1,5.376h7.107v7.166a3.86,3.86,0,1,0,7.72,0V177.219h12.129a3.858,3.858,0,1,0,0-7.717H154.277a5.5,5.5,0,0,0-4.4-8.822Z" fill="#bae4f0"/>
    </clipPath>
  </defs>
  <g id="Grupo_51" data-name="Grupo 51" transform="translate(106 -173.169)" opacity="0.49">
    <g id="Grupo_54" data-name="Grupo 54" transform="translate(-440 517)">
      <g id="Grupo_34" data-name="Grupo 34">
        <g id="Grupo_33" data-name="Grupo 33" clip-path="url(#clip-path)">
          <rect id="Rectángulo_18" data-name="Rectángulo 18" width="37.86" height="35.758" transform="translate(493.549 98.039)" fill="#bae4f0"/>
        </g>
      </g>
      <path id="Trazado_59" data-name="Trazado 59" d="M504.8,129.263a1.06,1.06,0,0,1-.9-1.623l2.565-4.1,1.8,1.124-2.565,4.1a1.061,1.061,0,0,1-.9.5m.429-6.5.773-1.237-.773,1.237m.776-2.695a1.494,1.494,0,0,0-.331.038,1.447,1.447,0,0,0-.909.647l-.563.9-1.545,2.473-1.229,1.967a3.977,3.977,0,1,0,6.745,4.216l1.23-1.968,1.545-2.473.563-.9a1.458,1.458,0,0,0-.464-2.009l-4.273-2.67a1.441,1.441,0,0,0-.769-.222" fill="#bae4f0"/>
      <path id="Trazado_60" data-name="Trazado 60" d="M504,111.39a1.458,1.458,0,0,0-.775,2.695l4.273,2.67a1.458,1.458,0,1,0,1.546-2.473l-4.273-2.671a1.459,1.459,0,0,0-.771-.221" fill="#bae4f0"/>
      <path id="Trazado_61" data-name="Trazado 61" d="M506.673,107.118a1.458,1.458,0,0,0-.775,2.7l4.273,2.67a1.458,1.458,0,1,0,1.546-2.473l-4.273-2.671a1.459,1.459,0,0,0-.771-.221" fill="#bae4f0"/>
    </g>
    <g id="Grupo_36" data-name="Grupo 36">
      <g id="Grupo_35" data-name="Grupo 35" clip-path="url(#clip-path-2)">
        <path id="Trazado_62" data-name="Trazado 62" d="M366.22,198.244a3.455,3.455,0,0,0-2.917,1.6l-.035.056a3.458,3.458,0,0,0,1.076,4.706l.082.052a3.455,3.455,0,0,0,4.712-1.111l.017-.028a3.456,3.456,0,0,0-2.935-5.271" fill="#bae4f0"/>
      </g>
    </g>
    <g id="Grupo_56" data-name="Grupo 56" transform="translate(-403 364)">
      <g id="Grupo_35-2" data-name="Grupo 35" clip-path="url(#clip-path-2)">
        <path id="Trazado_62-2" data-name="Trazado 62" d="M366.22,198.244a3.455,3.455,0,0,0-2.917,1.6l-.035.056a3.458,3.458,0,0,0,1.076,4.706l.082.052a3.455,3.455,0,0,0,4.712-1.111l.017-.028a3.456,3.456,0,0,0-2.935-5.271" fill="#bae4f0"/>
      </g>
    </g>
    <path id="Trazado_64" data-name="Trazado 64" d="M312.7,173.169a1.479,1.479,0,0,0-.33.038,1.452,1.452,0,0,0-.909.648L300.11,192.013a1.458,1.458,0,0,0,.463,2.01l8.377,5.234,1.546-2.474-7.139-4.461,9.8-15.684,21.024,13.137-9.8,15.685L317.242,201l-1.546,2.474,8.376,5.234a1.468,1.468,0,0,0,.776.221,1.428,1.428,0,0,0,.325-.037,1.465,1.465,0,0,0,.909-.648l11.346-18.157a1.456,1.456,0,0,0-.465-2.01l-23.5-14.684a1.455,1.455,0,0,0-.77-.222" fill="#bae4f0"/>
    <path id="Trazado_65" data-name="Trazado 65" d="M311.094,204.392a1.059,1.059,0,0,1-.9-1.622l2.564-4.1,1.8,1.124-2.563,4.1a1.061,1.061,0,0,1-.9.5m.428-6.5.773-1.236-.773,1.236m.775-2.7a1.429,1.429,0,0,0-.33.038,1.444,1.444,0,0,0-.908.648l-.562.9-1.546,2.474-1.229,1.966a3.978,3.978,0,1,0,6.746,4.216l1.228-1.967L317.242,201l.563-.9a1.458,1.458,0,0,0-.465-2.009l-4.273-2.67a1.444,1.444,0,0,0-.77-.222" fill="#bae4f0"/>
    <path id="Trazado_66" data-name="Trazado 66" d="M310.293,186.52a1.459,1.459,0,0,0-.775,2.7l4.273,2.67a1.459,1.459,0,0,0,1.546-2.474l-4.273-2.67a1.451,1.451,0,0,0-.771-.222" fill="#bae4f0"/>
    <path id="Trazado_67" data-name="Trazado 67" d="M312.963,182.247a1.458,1.458,0,0,0-.774,2.7l4.273,2.67a1.458,1.458,0,0,0,1.545-2.473l-4.272-2.67a1.457,1.457,0,0,0-.772-.222" fill="#bae4f0"/>
    <g id="Grupo_53" data-name="Grupo 53" transform="translate(-47 46)">
      <path id="Trazado_68" data-name="Trazado 68" d="M398.592,509.36a.729.729,0,0,0-.1,1.451l2.3.323a.712.712,0,0,0,.1.007.729.729,0,0,0,.1-1.451l-2.3-.323a.7.7,0,0,0-.1-.007" fill="#bae4f0"/>
      <path id="Trazado_69" data-name="Trazado 69" d="M405.478,510.328a.73.73,0,0,0-.387,1.348.743.743,0,0,0,.285.1l2.295.323a.73.73,0,0,0,.824-.62.73.73,0,0,0-.335-.721.744.744,0,0,0-.285-.1l-2.3-.323a.7.7,0,0,0-.1-.007" fill="#bae4f0"/>
      <path id="Trazado_70" data-name="Trazado 70" d="M412.363,511.3a.729.729,0,0,0-.1,1.451l2.3.323a.914.914,0,0,0,.1.007.729.729,0,0,0,.384-1.348.7.7,0,0,0-.283-.1l-2.3-.323a.722.722,0,0,0-.1-.007" fill="#bae4f0"/>
      <path id="Trazado_71" data-name="Trazado 71" d="M401.011,492.144a.729.729,0,0,0-.386,1.348.738.738,0,0,0,.285.1l2.295.324a.873.873,0,0,0,.1.007.73.73,0,0,0,.388-1.349.748.748,0,0,0-.286-.1l-2.295-.323a.7.7,0,0,0-.1-.007" fill="#bae4f0"/>
      <path id="Trazado_72" data-name="Trazado 72" d="M391.7,508.393a.729.729,0,0,0-.385,1.347.708.708,0,0,0,.285.1l2.3.323a.712.712,0,0,0,.1.007.73.73,0,0,0,.1-1.452l-2.3-.322a.722.722,0,0,0-.1-.007" fill="#bae4f0"/>
      <path id="Trazado_73" data-name="Trazado 73" d="M394.124,491.177a.729.729,0,0,0-.1,1.451l2.3.323a.874.874,0,0,0,.1.007.729.729,0,0,0,.384-1.348.718.718,0,0,0-.284-.1l-2.3-.323a.7.7,0,0,0-.1-.007" fill="#bae4f0"/>
      <path id="Trazado_74" data-name="Trazado 74" d="M407.9,493.112a.729.729,0,0,0-.1,1.452l2.3.322a.7.7,0,0,0,.1.008.73.73,0,0,0,.1-1.453l-2.3-.322a.7.7,0,0,0-.1-.007" fill="#bae4f0"/>
      <path id="Trazado_75" data-name="Trazado 75" d="M414.784,494.08a.729.729,0,0,0-.1,1.451l2.3.322a.714.714,0,0,0,.1.008.729.729,0,0,0,.1-1.452l-2.3-.322a.676.676,0,0,0-.1-.007" fill="#bae4f0"/>
      <path id="Trazado_76" data-name="Trazado 76" d="M392.378,516.095a.729.729,0,0,0-.722.627l-.323,2.3a.73.73,0,0,0,.337.72.717.717,0,0,0,.284.1l22.955,3.226a3.633,3.633,0,0,0,3.583-1.671,3.607,3.607,0,0,0,.509-1.386.729.729,0,0,1-.353.5l-.026.015a.856.856,0,0,1-.126.052c-.022.007-.045.012-.068.017a.568.568,0,0,1-.071.01.554.554,0,0,1-.071,0h-.056l-.048-.005a.712.712,0,0,1-.284-.1l0,0-.016-.01-.005,0-.173-.165a.74.74,0,0,1-.132-.293l0-.013v0l-.006-.213a2.164,2.164,0,0,1-2.142,1.851,2.1,2.1,0,0,1-.3-.022L392.879,518.5l.222-1.573a.729.729,0,0,0-.337-.72.719.719,0,0,0-.284-.1.7.7,0,0,0-.1-.007" fill="#bae4f0"/>
      <path id="Trazado_77" data-name="Trazado 77" d="M390.1,486.514a.709.709,0,0,0-.435.147.716.716,0,0,0-.285.481l-1.188,8.46,1.443.2,1.087-7.738,26.824,3.771a3.9,3.9,0,0,1,3.325,4.412l-2.9,20.65a3.6,3.6,0,0,0-.63-.5h0a3.632,3.632,0,0,0-1.416-.514l-28.546-4.012,1.087-7.738-1.443-.2-1.189,8.461a.727.727,0,0,0,.14.54l.2.18a.735.735,0,0,0,.285.1l29.268,4.112a2.166,2.166,0,0,1,1.851,2.405l-.006.045,0,.016.007.213v0l0,.013a.734.734,0,0,0,.131.294l.174.164,0,0,.016.011,0,0a.727.727,0,0,0,.284.1l.049.006h.055c.024,0,.048,0,.071,0s.048-.006.071-.011a.513.513,0,0,0,.068-.017.762.762,0,0,0,.126-.052l.026-.015a.725.725,0,0,0,.353-.5l.005-.029.01-.08,3.3-23.45a5.363,5.363,0,0,0-2.47-5.3l0,0-.006,0a5.346,5.346,0,0,0-2.088-.756L390.2,486.521a.717.717,0,0,0-.1-.007" fill="#bae4f0"/>
      <path id="Trazado_78" data-name="Trazado 78" d="M394.07,503.423a2.708,2.708,0,0,1-.389-.028l-7.313-1.027.765-5.442,7.312,1.027a2.748,2.748,0,0,1-.375,5.47m-7.659-6.6.1-.723-.1.723m.1-1.452a.731.731,0,0,0-.721.628l-.967,6.886a.729.729,0,0,0,.62.824l1.574.221,1.443.2,5.018.706a4.366,4.366,0,0,0,.59.041,4.207,4.207,0,0,0,2.226-7.774l0,0a4.194,4.194,0,0,0-1.643-.6l-5.018-.706-1.443-.2-1.574-.222a.722.722,0,0,0-.1-.007" fill="#bae4f0"/>
    </g>
    <g id="Grupo_38" data-name="Grupo 38" transform="translate(-550 113)">
      <g id="Grupo_37" data-name="Grupo 37" clip-path="url(#clip-path-4)">
        <path id="Trazado_89" data-name="Trazado 89" d="M467.156,256.275a4.956,4.956,0,0,0-3.434,8.535,7.722,7.722,0,0,0-4.285,6.9v24.81h-4.41a4.5,4.5,0,0,0-1.125.148,4.969,4.969,0,1,0-3.215,5.051,4.421,4.421,0,0,0,4.34,3.622H489.21a4.41,4.41,0,0,0,0-8.821H477.079v-5.514h7.168a4.416,4.416,0,0,0,4.411-4.541,4.517,4.517,0,0,0-4.548-4.28h-3.937l-6.086-14.235a6.548,6.548,0,0,0-3.258-3.39,4.954,4.954,0,0,0-3.673-8.287m0,7.719a2.757,2.757,0,1,1,2.757-2.757,2.756,2.756,0,0,1-2.757,2.757m-5.513,21.5V271.713a5.521,5.521,0,0,1,5.513-5.514h1.1c.116,0,.233.007.342.011a4.22,4.22,0,0,1,3.456,2.608l5.719,13.369h-4.217l-3.054-7.139a1.1,1.1,0,0,0-1.014-.669,1.079,1.079,0,0,0-.431.09,1.1,1.1,0,0,0-.579,1.445l2.729,6.39A3.854,3.854,0,0,0,468.3,285.5Zm8.821,11.026V286.047a1.661,1.661,0,0,1,1.654-1.655H484.11a2.3,2.3,0,0,1,2.343,2.139,2.2,2.2,0,0,1-2.206,2.272h-8.27a1.1,1.1,0,0,0-1.1,1.1v6.616Zm-8.821-8.821h6.616v8.821h-6.616Zm-12.68,12.129a2.757,2.757,0,1,1,2.756-2.756,2.756,2.756,0,0,1-2.756,2.756m21.5,3.308v-4.411H489.21a2.206,2.206,0,0,1,0,4.411Zm-15.437,0a2.206,2.206,0,0,1,0-4.411h13.232v4.411Z" fill="#bae4f0"/>
      </g>
    </g>
    <g id="Grupo_40" data-name="Grupo 40" transform="translate(-187 41)">
      <g id="Grupo_39" data-name="Grupo 39" clip-path="url(#clip-path-5)">
        <path id="Trazado_91" data-name="Trazado 91" d="M149.878,160.68a5.5,5.5,0,0,0-4.4,8.822H131.132a3.858,3.858,0,1,0,0,7.717h12.129v6.335l-4.7,8.138a3.584,3.584,0,0,0,3.1,5.376h7.107v7.167a3.859,3.859,0,0,0,7.718,0V177.219h12.13a3.858,3.858,0,1,0,0-7.717H154.277a5.5,5.5,0,0,0-4.4-8.822m0,8.822a3.308,3.308,0,1,1,3.308-3.309,3.313,3.313,0,0,1-3.308,3.309m6.615,5.512v-3.307h12.13a1.654,1.654,0,1,1,0,3.307Zm-11.026-3.307h8.821v11.026h-8.821Zm-14.334,3.307a1.654,1.654,0,1,1,0-3.307h12.129v3.307Zm21.5,30.875a1.66,1.66,0,0,1-1.654-1.654v-19.3h3.307v19.3a1.659,1.659,0,0,1-1.653,1.654m-10.967-11.026a1.379,1.379,0,0,1-1.2-2.068l4.54-7.857h3.18l-3.18,5.514a1.1,1.1,0,0,0,.953,1.654h2.811v2.757Zm6.209-4.963.9-1.559V189.9Z" fill="#bae4f0"/>
      </g>
    </g>
    <g id="Grupo_55" data-name="Grupo 55" transform="translate(127 217)">
      <g id="Grupo_39-2" data-name="Grupo 39" clip-path="url(#clip-path-5)">
        <path id="Trazado_91-2" data-name="Trazado 91" d="M149.878,160.68a5.5,5.5,0,0,0-4.4,8.822H131.132a3.858,3.858,0,1,0,0,7.717h12.129v6.335l-4.7,8.138a3.584,3.584,0,0,0,3.1,5.376h7.107v7.167a3.859,3.859,0,0,0,7.718,0V177.219h12.13a3.858,3.858,0,1,0,0-7.717H154.277a5.5,5.5,0,0,0-4.4-8.822m0,8.822a3.308,3.308,0,1,1,3.308-3.309,3.313,3.313,0,0,1-3.308,3.309m6.615,5.512v-3.307h12.13a1.654,1.654,0,1,1,0,3.307Zm-11.026-3.307h8.821v11.026h-8.821Zm-14.334,3.307a1.654,1.654,0,1,1,0-3.307h12.129v3.307Zm21.5,30.875a1.66,1.66,0,0,1-1.654-1.654v-19.3h3.307v19.3a1.659,1.659,0,0,1-1.653,1.654m-10.967-11.026a1.379,1.379,0,0,1-1.2-2.068l4.54-7.857h3.18l-3.18,5.514a1.1,1.1,0,0,0,.953,1.654h2.811v2.757Zm6.209-4.963.9-1.559V189.9Z" fill="#bae4f0"/>
      </g>
    </g>
  </g>
</svg>
