<svg id="hassle" xmlns="http://www.w3.org/2000/svg" width="103.026" height="103.742" viewBox="0 0 103.026 103.742">
  <path id="Trazado_7" data-name="Trazado 7" d="M49.952,0H7.471A7.482,7.482,0,0,0,0,7.472V87.305a7.482,7.482,0,0,0,7.472,7.472h42.48a7.472,7.472,0,0,0,7.453-7.472V7.472A7.472,7.472,0,0,0,49.951,0Zm4.43,87.305a4.451,4.451,0,0,1-4.441,4.451H7.472a4.451,4.451,0,0,1-4.451-4.451V7.472A4.451,4.451,0,0,1,7.472,3.021h42.48a4.451,4.451,0,0,1,4.431,4.451V87.305Z" fill="#85d4ed"/>
  <path id="Trazado_8" data-name="Trazado 8" d="M23.815,9.28H35.336a1.51,1.51,0,1,0,0-3.021H23.815a1.51,1.51,0,1,0,0,3.021Zm12.92,76.892H22.425a1.51,1.51,0,1,0,0,3.021h14.31a1.51,1.51,0,1,0,0-3.021Zm12.9-73.911H9.523a1.51,1.51,0,0,0-1.51,1.51V82.023a1.51,1.51,0,0,0,1.51,1.51H49.636a1.51,1.51,0,0,0,1.51-1.51V13.772A1.51,1.51,0,0,0,49.636,12.261Zm-38.6,3.022H48.125v5.166H11.033V15.282Zm0,65.228V23.47H48.125V80.511Z" transform="translate(-0.651 -0.509)" fill="#85d4ed"/>
  <path id="Trazado_9" data-name="Trazado 9" d="M27.313,91.756H7.472a4.451,4.451,0,0,1-4.451-4.45V7.472A4.451,4.451,0,0,1,7.472,3.021h19.84V0H7.472A7.482,7.482,0,0,0,0,7.472V87.305a7.482,7.482,0,0,0,7.472,7.472h19.84V91.756Z" fill="#bae4f0"/>
  <path id="Trazado_10" data-name="Trazado 10" d="M27.964,6.259H23.815a1.51,1.51,0,0,0,0,3.021h4.139l.009-3.021Zm0,79.913h-5.54a1.51,1.51,0,1,0,0,3.021h5.54v-3.02Zm0-5.66H11.033V23.47h16.93V20.449H11.033V15.282h16.93V12.26H9.524a1.511,1.511,0,0,0-1.511,1.51V82.022a1.51,1.51,0,0,0,1.51,1.51H27.963V80.511Z" transform="translate(-0.651 -0.509)" fill="#bae4f0"/>
  <path id="Trazado_11" data-name="Trazado 11" d="M50.628,104.968l-17.513-4.885V33.816L50.628,38.7Zm0,0,17.523-4.885V33.816L50.628,38.7Z" transform="translate(-2.691 -2.748)" fill="#fff"/>
  <path id="Trazado_12" data-name="Trazado 12" d="M105.066,32.485a1.48,1.48,0,0,0-1.319-.252L86.626,37l-17.12-4.764h-.061a1.139,1.139,0,0,0-.181,0h-.333a1.139,1.139,0,0,0-.181,0h-.04L51.59,37,34.469,32.233a1.48,1.48,0,0,0-1.318.252,1.5,1.5,0,0,0-.594,1.2V99.949a1.521,1.521,0,0,0,1.108,1.461l17.523,4.934a1.734,1.734,0,0,0,.4,0,1.83,1.83,0,0,0,.413,0l17.12-4.773,17.111,4.774a1.841,1.841,0,0,0,.4,0,1.943,1.943,0,0,0,.413,0l17.513-4.884A1.522,1.522,0,0,0,105.671,100V33.683a1.5,1.5,0,0,0-.6-1.2Zm-69.49,3.193,14.492,4.028V102.84L35.577,98.812ZM53.09,39.705l14.5-4.028V98.8l-14.5,4.028Zm17.523-4.028,14.492,4.028V102.84L70.613,98.812ZM102.639,98.8l-14.5,4.028V39.715l14.5-4.028V98.8Z" transform="translate(-2.645 -2.614)" fill="#85d4ed"/>
  <path id="Trazado_13" data-name="Trazado 13" d="M108.182,32.485a1.48,1.48,0,0,0-1.319-.252L89.742,37l-17.12-4.764h-.061a1.139,1.139,0,0,0-.181,0h-.333a1.139,1.139,0,0,0-.181,0h-.04l-.927.252v69.409l1.329-.373,17.121,4.823a1.734,1.734,0,0,0,.4,0,1.83,1.83,0,0,0,.413,0l17.513-4.884a1.521,1.521,0,0,0,1.108-1.46V33.683a1.5,1.5,0,0,0-.6-1.2ZM88.231,102.84,73.739,98.812V35.677l14.492,4.028Zm17.523-4.028-14.5,4.028V39.715l14.5-4.028Z" transform="translate(-5.761 -2.614)" fill="#bae4f0"/>
  <path id="Trazado_14" data-name="Trazado 14" d="M60.894,73.941a40.284,40.284,0,0,1-8.45,9.426.373.373,0,0,1-.191.081.333.333,0,0,1-.181-.081,40.093,40.093,0,0,1-8.45-9.426c-1.652-2.618-3.4-5.69-3.4-8.933,0-6.042,5.4-11.007,12.085-11.077S64.388,58.9,64.388,65.008C64.3,68.251,62.535,71.323,60.894,73.941Z" transform="translate(-3.268 -4.382)" fill="#fff"/>
  <path id="Trazado_15" data-name="Trazado 15" d="M52.411,53.646h-.584c-6.848.171-12.387,5.428-12.387,11.823,0,3.414,1.712,6.415,3.3,8.962a37.1,37.1,0,0,0,7.795,8.732,2.629,2.629,0,0,0,1.309.584H52.4a2.669,2.669,0,0,0,1.309-.584,37.051,37.051,0,0,0,7.815-8.732c1.6-2.548,3.3-5.549,3.3-8.962.03-6.416-5.529-11.683-12.418-11.824Zm7.261,19.6a35,35,0,0,1-7.362,8.209.483.483,0,0,1-.161.07.594.594,0,0,1-.161-.07,34.947,34.947,0,0,1-7.352-8.208c-1.43-2.276-2.961-4.955-2.961-7.774,0-5.277,4.7-9.588,10.474-9.6s10.474,4.321,10.474,9.6c0,2.82-1.521,5.5-2.951,7.774Z" transform="translate(-3.204 -4.359)" fill="#85d4ed"/>
  <path id="Trazado_16" data-name="Trazado 16" d="M53.031,60.343h-.574a6.043,6.043,0,1,0,.574,0Zm3.656,6.345v.292a3.857,3.857,0,0,1-.755,1.823l-.191.221a2.69,2.69,0,0,1-.383.373l-.2.181a3.825,3.825,0,0,1-1.8.765h-.322a4.712,4.712,0,0,1-.534,0l-.363.02a3.776,3.776,0,0,1-1.813-.755l-.2-.252a4.43,4.43,0,0,1-.382-.373l-.172-.2a3.958,3.958,0,0,1-.775-1.823V65.811a3.847,3.847,0,0,1,.735-1.782l.211-.252c.121-.13.253-.262.373-.372l.363-.292a3.767,3.767,0,0,1,1.661-.615h1.159a3.868,3.868,0,0,1,1.863.816l.242.221a2.982,2.982,0,0,1,.392.413l.131.161a3.8,3.8,0,0,1,.726,1.752v.322a2.49,2.49,0,0,1,0,.262c.017.08.03.161.04.242Z" transform="translate(-3.794 -4.903)" fill="#85d4ed"/>
</svg>
