<svg xmlns="http://www.w3.org/2000/svg" width="76.535" height="76.605" viewBox="0 0 76.535 76.605">
  <g id="ic_app_moca" transform="translate(0 -1.468)">
    <g id="_0fCs4b" data-name="0fCs4b" transform="translate(0 1.468)">
      <g id="Grupo_1" data-name="Grupo 1">
        <path id="Trazado_1" data-name="Trazado 1" d="M38.353,1.51c6.543,0,13.087-.05,19.63.031a27.78,27.78,0,0,1,5.8.672A15.952,15.952,0,0,1,76.143,15.955a58.9,58.9,0,0,1,.365,6.867q.051,17.543-.013,35.086a35.649,35.649,0,0,1-.574,6.841A16.041,16.041,0,0,1,61.329,77.776c-2.11.2-4.24.275-6.361.28q-17.03.039-34.06.01a35.415,35.415,0,0,1-7.8-.617A16.221,16.221,0,0,1,.3,62.864C.116,60.85.03,58.82.026,56.8,0,45.272-.023,33.748.042,22.223A39.324,39.324,0,0,1,.68,14.584,15.938,15.938,0,0,1,15,1.8a65.954,65.954,0,0,1,6.652-.307c5.567-.041,11.133-.014,16.7-.014Z" transform="translate(0 -1.468)" fill="#86d4ec"/>
      </g>
    </g>
    <g id="_0fCs4b-2" data-name="0fCs4b" transform="translate(38.509 1.481)">
      <g id="Grupo_2" data-name="Grupo 2">
        <path id="Trazado_2" data-name="Trazado 2" d="M182.392,22.846a58.906,58.906,0,0,0-.365-6.867A15.952,15.952,0,0,0,169.669,2.236a27.762,27.762,0,0,0-5.8-.671c-6.49-.08-12.982-.032-19.474-.031V78.1q8.229,0,16.459-.016c2.121,0,4.251-.077,6.361-.28A16.041,16.041,0,0,0,181.8,64.773a35.648,35.648,0,0,0,.574-6.841Q182.462,40.389,182.392,22.846Z" transform="translate(-144.393 -1.519)" fill="#bce5f1"/>
      </g>
    </g>
    <g id="Grupo_15" data-name="Grupo 15" transform="translate(13.843 10.795)">
      <g id="Grupo_14" data-name="Grupo 14" transform="translate(8.679 15.37)">
        <g id="Grupo_4" data-name="Grupo 4" transform="translate(13.463)">
          <g id="Grupo_3" data-name="Grupo 3">
            <path id="Trazado_3" data-name="Trazado 3" d="M137.688,105.642l8.054-8.744c1.423-1.545-.883-3.863-2.312-2.311l-8.054,8.744c-1.423,1.546.883,3.863,2.312,2.311Z" transform="translate(-134.929 -94.073)" fill="#fff"/>
          </g>
        </g>
        <g id="Grupo_6" data-name="Grupo 6" transform="translate(4.45 6.595)">
          <g id="Grupo_5" data-name="Grupo 5">
            <path id="Trazado_4" data-name="Trazado 4" d="M101.621,121.588l8.372,8.284a1.635,1.635,0,0,0,2.311-2.311l-8.372-8.284a1.636,1.636,0,0,0-2.312,2.312Z" transform="translate(-101.135 -118.8)" fill="#fff"/>
          </g>
        </g>
        <g id="Grupo_11" data-name="Grupo 11" transform="translate(0 25.945)">
          <g id="Grupo_8" data-name="Grupo 8" transform="translate(3.357)">
            <g id="Grupo_7" data-name="Grupo 7">
              <path id="Trazado_5" data-name="Trazado 5" d="M97.038,192.935c.021,3.926.042,3.907.062,7.833a1.636,1.636,0,0,0,3.269,0c-.021-3.926-.042-3.907-.062-7.833a1.636,1.636,0,0,0-3.269,0Z" transform="translate(-97.038 -191.355)" fill="#fff"/>
            </g>
          </g>
          <g id="Grupo_10" data-name="Grupo 10" transform="translate(0 3.654)">
            <g id="Grupo_9" data-name="Grupo 9">
              <path id="Trazado_6" data-name="Trazado 6" d="M86.029,208.388c3.926-.021,3.191-.042,7.117-.062a1.635,1.635,0,0,0,0-3.269c-3.926.021-3.191.042-7.117.062a1.635,1.635,0,0,0,0,3.269Z" transform="translate(-84.449 -205.057)" fill="#fff"/>
            </g>
          </g>
        </g>
        <g id="Grupo_13" data-name="Grupo 13" transform="translate(13.44 13.253)">
          <g id="Grupo_12" data-name="Grupo 12">
            <path id="Trazado_7" data-name="Trazado 7" d="M137.624,155.544l8.744-8.974c1.469-1.508-.84-3.822-2.312-2.311l-8.744,8.974c-1.469,1.508.84,3.822,2.312,2.311Z" transform="translate(-134.842 -143.766)" fill="#fff"/>
          </g>
        </g>
      </g>
      <path id="Trazado_8" data-name="Trazado 8" d="M101.314,55.933C99.209,43.614,87.453,36.809,76.9,36.45a1.414,1.414,0,0,0-.157-.009l-.024.41-.086-.41a2.177,2.177,0,0,0-.292.021c-9.5.35-17.65,5.037-21.812,12.539-5.854,10.552-.7,21.171,3.68,28.241a1.94,1.94,0,0,0,1.744.962,2.256,2.256,0,0,0,1.871-1.14,1.84,1.84,0,0,0-.1-1.9c-4.433-7.15-8.334-15.606-3.659-24.115,3.5-6.375,10.469-10.306,18.615-10.515,9.781.256,20.252,7.082,20.843,18.063.485,9-5.565,19.324-18,30.687a1.26,1.26,0,0,1-1.014.273c-.295-.122-.531-.567-.682-1.288a10.641,10.641,0,0,1-.14-2.357l.061-14.879a2.063,2.063,0,0,0-.061-.5V48.993c0-2.608-4.086-2.611-4.086,0V75.1l-.03,1.3c-.084,3.582-.171,7.286.03,10.9.1,1.826.568,4.291,2.211,5.657a3.933,3.933,0,0,0,2.559.981,5.951,5.951,0,0,0,3.481-1.376,2.128,2.128,0,0,0,.511-.342C92.293,83.155,103.634,69.506,101.314,55.933Z" transform="translate(-51.906 -36.441)" fill="#fff"/>
    </g>
  </g>
</svg>
