<svg xmlns="http://www.w3.org/2000/svg" width="55.625" height="55.567" viewBox="0 0 55.625 55.567">
  <g id="ic_looking" transform="translate(-2.5 -2.5)">
    <g id="Grupo_288" data-name="Grupo 288" transform="translate(2.5 2.5)">
      <path id="Trazado_436" data-name="Trazado 436" d="M40.192,29.3c-.234-.293-5.328-7.9-12.12-7.9s-11.886,7.553-12.12,7.9a2.031,2.031,0,0,0,0,2.284c.234.293,5.328,7.9,12.12,7.9s11.886-7.553,12.12-7.9A2.03,2.03,0,0,0,40.192,29.3Zm-12.12,6.09c-3.1,0-6.148-2.928-7.788-4.918,1.639-1.991,4.684-4.86,7.788-4.86,3.045,0,6.148,2.869,7.788,4.86C34.4,32.232,31.351,35.394,28.072,35.394Z" transform="translate(-7.93 -10.333)" fill="#bae4f0"/>
      <circle id="Elipse_34" data-name="Elipse 34" cx="3.045" cy="3.045" r="3.045" transform="translate(17.097 17.097)" fill="#bae4f0"/>
      <path id="Trazado_437" data-name="Trazado 437" d="M56.369,45.946l-7.612-7.67a5.956,5.956,0,0,0-7.553-.7L38.569,35A20.633,20.633,0,1,0,35,38.51l2.576,2.576a6.246,6.246,0,0,0-1.054,3.338,5.986,5.986,0,0,0,1.757,4.216l7.67,7.67a5.937,5.937,0,0,0,8.432,0l1.991-1.991A5.986,5.986,0,0,0,58.125,50.1,5.851,5.851,0,0,0,56.369,45.946Zm-33.726-8.2A15.107,15.107,0,1,1,37.749,22.642,15.144,15.144,0,0,1,22.642,37.749ZM52.8,50.806h0L50.806,52.8a.991.991,0,0,1-1.347,0l-7.612-7.612a.855.855,0,0,1,0-1.288l1.991-1.991a.855.855,0,0,1,1.288,0l7.67,7.67a1,1,0,0,1,.293.644A.89.89,0,0,1,52.8,50.806Z" transform="translate(-2.5 -2.5)" fill="#85d4ed"/>
    </g>
  </g>
</svg>
