<svg id="instagram" xmlns="http://www.w3.org/2000/svg" width="23" height="23.003" viewBox="0 0 23 23.003">
  <path id="Trazado_35" data-name="Trazado 35" d="M12.274,3.835V3.812c-1.043,0-2.084-.009-3.126.005a6.24,6.24,0,0,0-1.161.1A5.253,5.253,0,0,0,3.734,9.148c-.012,2.131-.007,4.262,0,6.394a5.436,5.436,0,0,0,.1,1.066,5.263,5.263,0,0,0,5.271,4.261c2.1.006,4.2.01,6.3-.005a5.984,5.984,0,0,0,1.345-.152A5.255,5.255,0,0,0,20.786,15.5q.012-3.162,0-6.323a6.265,6.265,0,0,0-.124-1.206A5.2,5.2,0,0,0,15.9,3.845C14.692,3.788,13.482,3.835,12.274,3.835ZM.76,6.042c.049-.376.077-.756.152-1.126A4.766,4.766,0,0,1,4.182,1.152,7.834,7.834,0,0,1,6.82.841c3.624,0,7.248-.008,10.873.006A12.614,12.614,0,0,1,19.684,1a4.783,4.783,0,0,1,3.882,3.755c.09.441.13.892.194,1.338v12.6c-.033.243-.066.486-.1.728a4.845,4.845,0,0,1-2.508,3.754,5.831,5.831,0,0,1-2.945.657Q13,23.85,7.787,23.837a24.452,24.452,0,0,1-2.641-.107,4.816,4.816,0,0,1-4.239-4.01c-.057-.327-.1-.657-.147-.986V6.042Z" transform="translate(-0.76 -0.838)" fill="#242b5a" fill-rule="evenodd"/>
  <path id="Trazado_36" data-name="Trazado 36" d="M19.721,9.479a1.037,1.037,0,1,0-1.031,1.036,1.039,1.039,0,0,0,1.031-1.036ZM14.037,18.35a4.24,4.24,0,1,0-4.249-4.225A4.266,4.266,0,0,0,14.037,18.35Zm0-11.3c1.074,0,2.147,0,3.221,0a3.8,3.8,0,0,1,3.832,3.827q.005,3.233,0,6.465a3.8,3.8,0,0,1-3.832,3.827q-3.221,0-6.441,0a3.8,3.8,0,0,1-3.844-3.838q0-3.221,0-6.441a3.8,3.8,0,0,1,3.844-3.839q1.61,0,3.22,0Z" transform="translate(-2.527 -2.607)" fill="#242b5a" fill-rule="evenodd"/>
  <path id="Trazado_37" data-name="Trazado 37" d="M18.5,15.821a2.759,2.759,0,1,1-.809-1.961,2.757,2.757,0,0,1,.809,1.961" transform="translate(-4.237 -4.317)" fill="#242b5a" fill-rule="evenodd"/>
</svg>
