<svg xmlns="http://www.w3.org/2000/svg" width="130.802" height="34.011" viewBox="0 0 130.802 34.011">
  <g id="logo_landscape_moca" transform="translate(-118.16 -102.068)">
    <g id="Grupo_61" data-name="Grupo 61" transform="translate(155.981 125.953)">
      <path id="Trazado_108" data-name="Trazado 108" d="M319.669,232.214a.783.783,0,0,1,.787-.788h.165a.824.824,0,0,1,.725.419l2.693,4.218,2.706-4.23a.787.787,0,0,1,.712-.407h.165a.783.783,0,0,1,.788.788v7.445a.772.772,0,0,1-.788.775.786.786,0,0,1-.775-.775v-5.336l-2.173,3.265a.73.73,0,0,1-1.309,0l-2.159-3.239v5.323a.76.76,0,0,1-.776.762.748.748,0,0,1-.761-.762Z" transform="translate(-319.669 -231.032)" fill="#71cce8"/>
      <path id="Trazado_109" data-name="Trazado 109" d="M382.275,246.125V246.1a3.577,3.577,0,0,1,7.152-.026v.026a3.507,3.507,0,0,1-3.595,3.493A3.469,3.469,0,0,1,382.275,246.125Zm5.615,0V246.1a2.073,2.073,0,0,0-2.058-2.16,2.013,2.013,0,0,0-2.02,2.134v.026a2.068,2.068,0,0,0,2.046,2.147A2.012,2.012,0,0,0,387.89,246.125Z" transform="translate(-370.524 -240.103)" fill="#71cce8"/>
      <path id="Trazado_110" data-name="Trazado 110" d="M440.587,237.967a.768.768,0,0,1-1.537,0v-.419a2.686,2.686,0,0,1-2.287,1.257,3.216,3.216,0,0,1-3.112-3.481V235.3a3.2,3.2,0,0,1,3.112-3.481A2.745,2.745,0,0,1,439.05,233V230.09a.768.768,0,0,1,1.537,0ZM435.2,235.3v.026a2,2,0,0,0,1.931,2.147,2.02,2.02,0,0,0,1.943-2.147V235.3a2.013,2.013,0,0,0-1.943-2.147A1.967,1.967,0,0,0,435.2,235.3Z" transform="translate(-412.258 -229.328)" fill="#71cce8"/>
      <path id="Trazado_111" data-name="Trazado 111" d="M489.145,249.593a3.347,3.347,0,0,1-3.443-3.481v-.026a3.329,3.329,0,0,1,3.278-3.493,3.173,3.173,0,0,1,3.188,3.3.718.718,0,0,1-.724.736h-4.2a1.873,1.873,0,0,0,1.931,1.7,2.412,2.412,0,0,0,1.588-.584.571.571,0,0,1,.394-.14.6.6,0,0,1,.609.623.669.669,0,0,1-.2.47A3.445,3.445,0,0,1,489.145,249.593Zm1.525-3.977a1.742,1.742,0,0,0-1.7-1.765,1.815,1.815,0,0,0-1.74,1.765Z" transform="translate(-454.539 -240.103)" fill="#71cce8"/>
      <path id="Trazado_112" data-name="Trazado 112" d="M535.313,243.653a.759.759,0,0,1,.762-.775.77.77,0,0,1,.775.775v.686a2.132,2.132,0,0,1,1.689-1.474.713.713,0,0,1,.762.762.721.721,0,0,1-.609.737c-1.093.19-1.842,1.029-1.842,2.617v1.982a.767.767,0,0,1-.775.762.757.757,0,0,1-.762-.762Z" transform="translate(-494.839 -240.325)" fill="#71cce8"/>
      <path id="Trazado_113" data-name="Trazado 113" d="M570.037,243.431a.759.759,0,0,1,.762-.775.77.77,0,0,1,.775.775v.331a2.431,2.431,0,0,1,2.1-1.169,2.3,2.3,0,0,1,2.388,2.566v3.583a.749.749,0,0,1-.762.762.759.759,0,0,1-.775-.762v-3.113c0-1.042-.521-1.639-1.435-1.639a1.492,1.492,0,0,0-1.512,1.664v3.087a.769.769,0,0,1-1.538,0Z" transform="translate(-523.045 -240.103)" fill="#71cce8"/>
      <path id="Trazado_114" data-name="Trazado 114" d="M644.693,235.508v-.025a4.5,4.5,0,0,1,4.586-4.6,4.665,4.665,0,0,1,3.049,1,.78.78,0,0,1,.3.622.782.782,0,0,1-1.245.61,3.222,3.222,0,0,0-2.121-.8,2.993,2.993,0,0,0-2.935,3.138v.025a3,3,0,0,0,2.935,3.151,3.189,3.189,0,0,0,2.223-.852.708.708,0,0,1,.469-.177.743.743,0,0,1,.737.724.751.751,0,0,1-.254.559,4.543,4.543,0,0,1-3.227,1.194A4.473,4.473,0,0,1,644.693,235.508Z" transform="translate(-583.689 -230.592)" fill="#71cce8"/>
      <path id="Trazado_115" data-name="Trazado 115" d="M700.2,247.731v-.026c0-1.448,1.13-2.159,2.77-2.159a5.6,5.6,0,0,1,1.8.279v-.165c0-.953-.584-1.461-1.665-1.461a3.993,3.993,0,0,0-1.486.267.851.851,0,0,1-.241.038.64.64,0,0,1-.648-.636.67.67,0,0,1,.42-.609,5.737,5.737,0,0,1,2.159-.394,3.006,3.006,0,0,1,2.223.749,2.782,2.782,0,0,1,.724,2.071v3.3a.732.732,0,0,1-.749.737.694.694,0,0,1-.749-.648v-.254a2.728,2.728,0,0,1-2.186.978A2.143,2.143,0,0,1,700.2,247.731Zm4.6-.483v-.457a4.256,4.256,0,0,0-1.525-.267c-.991,0-1.576.419-1.576,1.118v.025c0,.648.572,1.016,1.309,1.016C704.02,248.684,704.794,248.1,704.794,247.249Z" transform="translate(-628.775 -240.325)" fill="#71cce8"/>
      <path id="Trazado_116" data-name="Trazado 116" d="M749.066,243.653a.759.759,0,0,1,.762-.775.77.77,0,0,1,.776.775v.686a2.132,2.132,0,0,1,1.689-1.474.713.713,0,0,1,.762.762.721.721,0,0,1-.609.737c-1.093.19-1.842,1.029-1.842,2.617v1.982a.768.768,0,0,1-.776.762.756.756,0,0,1-.762-.762Z" transform="translate(-668.472 -240.325)" fill="#71cce8"/>
      <path id="Trazado_117" data-name="Trazado 117" d="M784.056,249.593a3.347,3.347,0,0,1-3.443-3.481v-.026a3.329,3.329,0,0,1,3.277-3.493,3.173,3.173,0,0,1,3.188,3.3.718.718,0,0,1-.724.736h-4.2a1.873,1.873,0,0,0,1.931,1.7,2.412,2.412,0,0,0,1.587-.584.571.571,0,0,1,.394-.14.6.6,0,0,1,.609.623.669.669,0,0,1-.2.47A3.444,3.444,0,0,1,784.056,249.593Zm1.525-3.977a1.742,1.742,0,0,0-1.7-1.765,1.815,1.815,0,0,0-1.74,1.765Z" transform="translate(-694.098 -240.103)" fill="#71cce8"/>
    </g>
    <g id="Grupo_62" data-name="Grupo 62" transform="translate(155.981 103.99)">
      <path id="Trazado_118" data-name="Trazado 118" d="M319.669,114.939a1.551,1.551,0,0,1,1.56-1.56h.327a1.631,1.631,0,0,1,1.434.83l5.333,8.352,5.359-8.377a1.556,1.556,0,0,1,1.409-.805h.327a1.551,1.551,0,0,1,1.56,1.56V129.68a1.53,1.53,0,0,1-1.56,1.535,1.557,1.557,0,0,1-1.535-1.535V119.115l-4.3,6.465a1.445,1.445,0,0,1-2.591,0l-4.277-6.415v10.541a1.5,1.5,0,0,1-1.535,1.509,1.483,1.483,0,0,1-1.51-1.509Z" transform="translate(-319.669 -113.178)" fill="#0f224e"/>
      <path id="Trazado_119" data-name="Trazado 119" d="M458.665,121.464v-.05a9.208,9.208,0,0,1,18.415-.05v.05a9.208,9.208,0,0,1-18.415.05Zm15.169,0v-.05a6.033,6.033,0,0,0-5.987-6.264,5.95,5.95,0,0,0-5.937,6.213v.05a6.012,6.012,0,0,0,5.987,6.239A5.929,5.929,0,0,0,473.835,121.464Z" transform="translate(-432.577 -112.307)" fill="#0f224e"/>
      <path id="Trazado_120" data-name="Trazado 120" d="M599.4,121.464v-.05a8.911,8.911,0,0,1,9.081-9.107,9.235,9.235,0,0,1,6.038,1.987,1.545,1.545,0,0,1,.6,1.233,1.547,1.547,0,0,1-2.465,1.207,6.387,6.387,0,0,0-4.2-1.584,5.926,5.926,0,0,0-5.811,6.213v.05a5.933,5.933,0,0,0,5.811,6.239,6.312,6.312,0,0,0,4.4-1.686,1.408,1.408,0,0,1,.931-.352,1.445,1.445,0,0,1,.956,2.541,9,9,0,0,1-6.39,2.365A8.856,8.856,0,0,1,599.4,121.464Z" transform="translate(-546.899 -112.307)" fill="#0f224e"/>
      <path id="Trazado_121" data-name="Trazado 121" d="M723.05,128.424l6.541-14.591a1.962,1.962,0,0,1,1.861-1.258h.151a1.929,1.929,0,0,1,1.836,1.258l6.541,14.591a1.347,1.347,0,0,1,.176.654,1.45,1.45,0,0,1-1.459,1.484,1.6,1.6,0,0,1-1.51-1.082l-1.434-3.3H727.2l-1.484,3.4a1.489,1.489,0,0,1-1.434.981,1.418,1.418,0,0,1-1.434-1.434A1.587,1.587,0,0,1,723.05,128.424Zm11.522-4.981-3.094-7.119-3.094,7.119Z" transform="translate(-647.176 -112.525)" fill="#0f224e"/>
    </g>
    <g id="Grupo_75" data-name="Grupo 75" transform="translate(118.16 102.068)">
      <g id="Grupo_74" data-name="Grupo 74" transform="translate(5.134 9.093)">
        <g id="Grupo_64" data-name="Grupo 64" transform="translate(7.964)">
          <g id="Grupo_63" data-name="Grupo 63">
            <path id="Trazado_122" data-name="Trazado 122" d="M189.582,157.358l4.765-5.173c.842-.914-.522-2.285-1.367-1.368l-4.765,5.173c-.842.914.522,2.285,1.367,1.367Z" transform="translate(-187.95 -150.514)" fill="#71cce8"/>
          </g>
        </g>
        <g id="Grupo_66" data-name="Grupo 66" transform="translate(2.633 3.901)">
          <g id="Grupo_65" data-name="Grupo 65">
            <path id="Trazado_123" data-name="Trazado 123" d="M159.83,172.949l4.953,4.9a.968.968,0,0,0,1.368-1.368l-4.953-4.9a.968.968,0,0,0-1.368,1.367Z" transform="translate(-159.543 -171.3)" fill="#71cce8"/>
          </g>
        </g>
        <g id="Grupo_71" data-name="Grupo 71" transform="translate(0 15.348)">
          <g id="Grupo_68" data-name="Grupo 68" transform="translate(1.986)">
            <g id="Grupo_67" data-name="Grupo 67">
              <path id="Trazado_124" data-name="Trazado 124" d="M156.1,233.224c.012,2.322.025,2.312.037,4.634a.968.968,0,0,0,1.934,0c-.012-2.322-.025-2.312-.037-4.634a.968.968,0,0,0-1.934,0Z" transform="translate(-156.098 -232.289)" fill="#71cce8"/>
            </g>
          </g>
          <g id="Grupo_70" data-name="Grupo 70" transform="translate(0 2.162)">
            <g id="Grupo_69" data-name="Grupo 69">
              <path id="Trazado_125" data-name="Trazado 125" d="M146.451,245.778c2.322-.012,1.888-.025,4.21-.037a.968.968,0,0,0,0-1.934c-2.323.012-1.888.025-4.21.037a.968.968,0,0,0,0,1.934Z" transform="translate(-145.516 -243.807)" fill="#71cce8"/>
            </g>
          </g>
        </g>
        <g id="Grupo_73" data-name="Grupo 73" transform="translate(7.951 7.84)">
          <g id="Grupo_72" data-name="Grupo 72">
            <path id="Trazado_126" data-name="Trazado 126" d="M189.522,199.253l5.173-5.309c.869-.892-.5-2.261-1.367-1.368l-5.173,5.309c-.869.892.5,2.261,1.368,1.368Z" transform="translate(-187.877 -192.286)" fill="#71cce8"/>
          </g>
        </g>
      </g>
      <path id="Trazado_127" data-name="Trazado 127" d="M147.389,113.6c-1.246-7.287-8.2-11.313-14.442-11.525a.868.868,0,0,0-.093-.005l-.014.243-.05-.243a1.3,1.3,0,0,0-.173.012,15.061,15.061,0,0,0-12.9,7.418c-3.463,6.242-.416,12.525,2.177,16.707a1.148,1.148,0,0,0,1.032.569,1.335,1.335,0,0,0,1.107-.675,1.089,1.089,0,0,0-.058-1.126c-2.622-4.23-4.93-9.232-2.165-14.266a12.613,12.613,0,0,1,11.012-6.22c5.786.152,11.98,4.19,12.33,10.686.287,5.327-3.292,11.432-10.647,18.154a.745.745,0,0,1-.6.161c-.175-.072-.314-.336-.4-.762a6.3,6.3,0,0,1-.083-1.395l.036-8.8a1.224,1.224,0,0,0-.036-.3V109.494a1.21,1.21,0,0,0-2.417,0v15.444l-.018.768c-.05,2.119-.1,4.31.018,6.447a4.713,4.713,0,0,0,1.308,3.346,2.325,2.325,0,0,0,1.514.58,3.52,3.52,0,0,0,2.059-.814,1.26,1.26,0,0,0,.3-.2C142.052,129.7,148.761,121.629,147.389,113.6Z" transform="translate(-118.16 -102.068)" fill="#0f224e"/>
    </g>
  </g>
</svg>
