<svg id="person" xmlns="http://www.w3.org/2000/svg" width="77.722" height="84.436" viewBox="0 0 77.722 84.436">
  <path id="Trazado_17" data-name="Trazado 17" d="M3.544,15.139H76.377c3.262,0,3.262-5.086,0-5.086H3.544c-3.252,0-3.262,5.086,0,5.086Z" transform="translate(-1.101 -0.817)" fill="#85d4ed"/>
  <ellipse id="Elipse_1" data-name="Elipse 1" cx="8.387" cy="8.422" rx="8.387" ry="8.422" transform="translate(51.866 2.543)" fill="#fff"/>
  <path id="Trazado_18" data-name="Trazado 18" d="M76.637,10.965a2.849,2.849,0,0,0-.071-.742C75.927,4.608,71.621,0,65.716,0a11.086,11.086,0,0,0-10.93,10.965A11.048,11.048,0,0,0,65.23,21.91c6.078.254,10.636-4.4,11.3-10.172a2.963,2.963,0,0,0,.1-.773Zm-16.786,0c0-7.6,11.315-7.537,11.72,0C71.166,18.5,59.851,18.563,59.851,10.965Z" transform="translate(-5.463)" fill="#58b1cb"/>
  <path id="Trazado_19" data-name="Trazado 19" d="M3.544,83.2H76.377c3.262,0,3.262-5.086,0-5.086H3.544C.292,78.109.282,83.2,3.544,83.2Z" transform="translate(-1.101 -6.346)" fill="#85d4ed"/>
  <ellipse id="Elipse_2" data-name="Elipse 2" cx="8.387" cy="8.422" rx="8.387" ry="8.422" transform="translate(51.866 65.07)" fill="#fff"/>
  <path id="Trazado_20" data-name="Trazado 20" d="M76.686,79.026a2.849,2.849,0,0,0-.071-.742c-.639-5.616-4.945-10.173-10.85-10.173a10.959,10.959,0,0,0-.486,21.85c6.078.254,10.636-4.394,11.3-10.172a2.927,2.927,0,0,0,.1-.763Zm-16.786,0c0-7.6,11.315-7.537,11.72,0C71.215,86.563,59.9,86.634,59.9,79.026Z" transform="translate(-5.512 -5.534)" fill="#58b1cb"/>
  <path id="Trazado_21" data-name="Trazado 21" d="M76.377,43.179H3.544c-3.252,0-3.262,5.085,0,5.085H76.377c3.262,0,3.262-5.085,0-5.085Z" transform="translate(-1.101 -3.508)" fill="#85d4ed"/>
  <ellipse id="Elipse_3" data-name="Elipse 3" cx="8.387" cy="8.422" rx="8.387" ry="8.422" transform="translate(9.088 34.625)" fill="#fff"/>
  <path id="Trazado_22" data-name="Trazado 22" d="M19.612,34.94c-6.078-.254-10.646,4.394-11.305,10.172a2.6,2.6,0,0,0-.071.763,2.46,2.46,0,0,0,.071.742c.639,5.615,4.934,10.223,10.85,10.223a10.958,10.958,0,0,0,.456-21.91v.01ZM13.3,45.885c.405-7.537,11.71-7.608,11.71,0S13.706,53.423,13.3,45.885Z" transform="translate(-1.681 -2.838)" fill="#58b1cb"/>
  <path id="Trazado_23" data-name="Trazado 23" d="M37.864,45.744A2.538,2.538,0,0,0,35.331,43.2H3.554c-3.262,0-3.273,5.085,0,5.085H35.331a2.538,2.538,0,0,0,2.533-2.542Z" transform="translate(-1.101 -3.51)" fill="#bae4f0"/>
  <ellipse id="Elipse_4" data-name="Elipse 4" cx="8.387" cy="8.422" rx="8.387" ry="8.422" transform="translate(9.088 34.625)" fill="#fff"/>
  <path id="Trazado_24" data-name="Trazado 24" d="M19.5,34.928C13.426,34.745,8.97,39.375,8.361,45.1a2.6,2.6,0,0,0-.071.763,2.493,2.493,0,0,0,.071.742C9,52.221,13.3,56.828,19.211,56.828a10.967,10.967,0,0,0,.345-21.92l-.051.02Zm-6.2,10.955c.405-7.537,11.71-7.608,11.71,0s-11.305,7.537-11.71,0Z" transform="translate(-1.685 -2.836)" fill="#bae4f0"/>
  <path id="Trazado_25" data-name="Trazado 25" d="M45.69,12.618a2.538,2.538,0,0,0,2.533,2.542H80c3.262,0,3.262-5.085,0-5.085H48.223a2.527,2.527,0,0,0-2.533,2.542Z" transform="translate(-4.724 -0.819)" fill="#abd9e2"/>
  <ellipse id="Elipse_5" data-name="Elipse 5" cx="8.387" cy="8.422" rx="8.387" ry="8.422" transform="translate(51.866 2.563)" fill="#fff"/>
  <path id="Trazado_26" data-name="Trazado 26" d="M64.633,21.931c6.078.184,10.535-4.445,11.143-10.171a3.013,3.013,0,0,0,.072-.753,2.962,2.962,0,0,0-.072-.752C75.187,4.628,70.893,0,64.977,0a10.969,10.969,0,0,0-.345,21.931Zm6.2-10.945c-.405,7.537-11.72,7.6-11.72,0S70.427,3.448,70.833,10.985ZM45.69,74.306a2.538,2.538,0,0,0,2.533,2.543H80c3.262,0,3.262-5.086,0-5.086H48.223a2.538,2.538,0,0,0-2.533,2.543Z" transform="translate(-4.724)" fill="#bae4f0"/>
  <ellipse id="Elipse_6" data-name="Elipse 6" cx="8.387" cy="8.422" rx="8.387" ry="8.422" transform="translate(51.866 65.07)" fill="#fff"/>
  <path id="Trazado_27" data-name="Trazado 27" d="M65.437,89.961c6.078.184,10.535-4.445,11.143-10.172a3.038,3.038,0,0,0,.072-.763,2.849,2.849,0,0,0-.072-.742c-.638-5.615-4.934-10.172-10.849-10.172a10.97,10.97,0,0,0-.294,21.85Zm6.2-10.955c-.405,7.537-11.72,7.608-11.72,0s11.315-7.517,11.72.02Z" transform="translate(-5.529 -5.534)" fill="#bae4f0"/>
</svg>
