<svg xmlns="http://www.w3.org/2000/svg" width="27.978" height="37.665" viewBox="0 0 27.978 37.665">
  <g id="pinn" transform="translate(0 -0.242)">
    <path id="Shape" d="M14.1,32.905c-1.78,0-3.344-1.6-4.6-2.887l-.194-.2a41.261,41.261,0,0,1-5.67-6.93C1.877,20.087,0,16.783,0,13.024A12.482,12.482,0,0,1,4.077,3.862,14.489,14.489,0,0,1,13.909,0h.081l.035.317V0c7.7.033,13.955,5.876,13.953,13.024,0,3.755-1.877,7.061-3.636,9.865a40.61,40.61,0,0,1-7.936,9.044A3.461,3.461,0,0,1,14.1,32.905ZM13.988,2.463C7.63,2.476,2.457,7.214,2.457,13.024c0,3.106,1.682,6.047,3.259,8.559A38.3,38.3,0,0,0,13.8,30.608a.429.429,0,0,0,.176.08.442.442,0,0,0,.185-.08,37.983,37.983,0,0,0,8.088-9.024c1.577-2.513,3.259-5.455,3.259-8.559h.007C25.521,7.214,20.348,2.476,13.988,2.463Z" transform="translate(0 0.242)" fill="#71cfeb"/>
    <path id="Shape-2" data-name="Shape" d="M6.124,12.248a6.122,6.122,0,1,1,6.124-6.124A6.131,6.131,0,0,1,6.124,12.248Zm0-10.008a3.891,3.891,0,1,0,3.891,3.891A3.9,3.9,0,0,0,6.124,2.24Z" transform="translate(7.864 6.518)" fill="#71cfeb"/>
    <path id="Path" d="M11.616,2.238c.358.1.6.246.63.617,0-.111.085-.12-.035,0,.115-.119-.109.082-.026.017a1.816,1.816,0,0,1-.385.185,12.986,12.986,0,0,1-3.6.556A19.218,19.218,0,0,1,3.771,3.4a2.505,2.505,0,0,1-1.427-.611.569.569,0,0,1-.089-.2c.019.052,0-.011,0-.011s-.061.044-.03.032a1.164,1.164,0,0,0,.789-1.39A1.137,1.137,0,0,0,1.625.427,2.37,2.37,0,0,0,.057,2.041,2.522,2.522,0,0,0,.522,4.113C1.542,5.479,3.4,5.669,4.97,5.794a22.96,22.96,0,0,0,5.744-.2c1.169-.2,2.509-.4,3.285-1.4C15.278,2.551,13.953.55,12.209.049a1.13,1.13,0,0,0-.6,2.177Z" transform="translate(6.738 32.02)" fill="#71cfeb"/>
  </g>
</svg>
