<svg id="reliable" xmlns="http://www.w3.org/2000/svg" width="84.667" height="96.042" viewBox="0 0 84.667 96.042">
  <path id="Trazado_1" data-name="Trazado 1" d="M73.431,52.138,66.108,62.171l-2.35-2.6c-2.411-2.619-6.9.711-4.455,3.372l4.852,5.3a2.83,2.83,0,0,0,4.425,0l9.267-12.694c2.086-2.853-2.288-6.315-4.415-3.411Z" transform="translate(-4.785 -4.157)" fill="#85d4ed"/>
  <path id="Trazado_2" data-name="Trazado 2" d="M81.011,17.68l-.214,1.5.214-1.5c-.234,0-23.944-3.524-35.429-16.248A4.337,4.337,0,0,0,42.531.011h-.164a4.306,4.306,0,0,0-3.05,1.29c-.194.141-15.92,15.811-34.8,15h-.2A4.218,4.218,0,0,0,.053,20.31,106.818,106.818,0,0,0,3.827,50.927C9,69.621,19.216,83.543,33.325,91.19l.6.314,6.1,4.062a2.926,2.926,0,0,0,1.617.487,2.971,2.971,0,0,0,1.516-.415l9.3-5.575a55.057,55.057,0,0,0,7.618-5.535,2.957,2.957,0,0,0-3.885-4.458,44.7,44.7,0,0,1-14.383,8.54C26.093,82.518,14.913,68.95,9.493,49.393a102.4,102.4,0,0,1-3.57-27.154c17.831,0,32.255-11.9,36.374-15.678C53.669,18.036,72.934,22.249,78.743,23.286c-.112,3.594-.377,7.108-.773,10.53a2.956,2.956,0,1,0,5.869.711c.478-4.062.773-8.3.854-12.612a4.226,4.226,0,0,0-3.682-4.235Z" transform="translate(-0.026 -0.011)" fill="#85d4ed"/>
  <path id="Trazado_3" data-name="Trazado 3" d="M38.861,21.84a2.821,2.821,0,0,0-3.937-.579c-3.682,2.71-9.419,5.95-15.909,5.95a4.561,4.561,0,0,0-3.173,1.28,4.444,4.444,0,0,0-1.394,3.2,69.573,69.573,0,0,0,3.317,19.873A47.279,47.279,0,0,0,27.621,69.15a2.789,2.789,0,0,0,2.034.923,2.871,2.871,0,0,0,1.9-.73,2.83,2.83,0,0,0,.184-3.971,42.1,42.1,0,0,1-8.667-15.546,64.333,64.333,0,0,1-3.052-17.01c7.537-.314,14-3.96,18.167-7.047a2.8,2.8,0,0,0,.671-3.93Z" transform="translate(-1.198 -1.693)" fill="#58b1cb"/>
  <path id="Trazado_4" data-name="Trazado 4" d="M68.594,40.386a18.7,18.7,0,1,1-.01,0h.009Zm-8.81,30.282-.722-.63a12.866,12.866,0,0,1-1.393-1.391l-.549-.609a14.387,14.387,0,0,1-2.92-6.875l-.071-1.015V57.223a14.264,14.264,0,0,1,2.807-6.763l.723-.833a13.724,13.724,0,0,1,1.393-1.381l.672-.609a14.335,14.335,0,0,1,6.8-2.854l1.078-.071a12.676,12.676,0,0,1,1.963,0h.895a14.314,14.314,0,0,1,7.12,2.986l.8.73A15.2,15.2,0,0,1,79.8,49.992l.447.508a14.335,14.335,0,0,1,2.726,6.6l.072,1.015v2.934a14.275,14.275,0,0,1-2.839,6.875l-.65.752a13.733,13.733,0,0,1-1.394,1.381l-.62.559a14.467,14.467,0,0,1-6.886,2.914l-1.017.061a12.8,12.8,0,0,1-1.973,0H66.8a14.345,14.345,0,0,1-7.019-2.924Z" transform="translate(-4.066 -3.291)" fill="#85d4ed"/>
  <path id="Trazado_5" data-name="Trazado 5" d="M41.615,88.473C26.022,82.38,14.924,68.814,9.523,49.358a102.4,102.4,0,0,1-3.6-27.112c16.957,0,30.811-10.754,35.684-15.06V.077A4.3,4.3,0,0,0,39.266,1.3C39.123,1.448,23.4,17.117,4.519,16.3h-.2A4.218,4.218,0,0,0,.053,20.315,106.818,106.818,0,0,0,3.827,50.933C9,69.626,19.216,83.548,33.325,91.195l.6.314,6.1,4.062a2.892,2.892,0,0,0,1.556.478l.03-7.575Z" transform="translate(-0.026 -0.016)" fill="#bae4f0"/>
  <path id="Trazado_6" data-name="Trazado 6" d="M38.861,21.84a2.821,2.821,0,0,0-3.937-.579c-3.682,2.71-9.419,5.95-15.909,5.95a4.561,4.561,0,0,0-3.173,1.28,4.444,4.444,0,0,0-1.394,3.2,69.573,69.573,0,0,0,3.317,19.873A47.279,47.279,0,0,0,27.621,69.15a2.789,2.789,0,0,0,2.034.923,2.871,2.871,0,0,0,1.9-.73,2.83,2.83,0,0,0,.184-3.971,42.1,42.1,0,0,1-8.667-15.546,64.333,64.333,0,0,1-3.052-17.01c7.537-.314,14-3.96,18.167-7.047a2.8,2.8,0,0,0,.671-3.93Z" transform="translate(-1.198 -1.693)" fill="#bae4f0"/>
</svg>
