<svg xmlns="http://www.w3.org/2000/svg" width="24.228" height="47.233" viewBox="0 0 24.228 47.233">
  <g id="therapist" transform="translate(-0.902 0)">
    <path id="Fill_121" data-name="Fill 121" d="M6.962,36.559H0v-.336c0-2.564.016-3.874.035-5.392.013-1.038.027-2.213.039-3.969A10.078,10.078,0,0,1,3.05,19.742a10.158,10.158,0,0,1,2.984-2.118l.061-.029.144-.069a.114.114,0,0,0,.026-.022l.022-.021a9.235,9.235,0,0,1-4.627-5.388A9.22,9.22,0,0,1,5.008,1.755,9.2,9.2,0,0,1,10.429,0h.1A9.262,9.262,0,0,1,17.24,15.482,9.008,9.008,0,0,1,14.565,17.5l.123.061c.068.034.132.065.2.1a10.4,10.4,0,0,1,5.23,5.613H16.432a7.035,7.035,0,0,0-9.907-2.131,6.746,6.746,0,0,0-3.165,5.843c-.014,1.345-.029,2.048-.042,2.669-.018.836-.032,1.5-.032,3.363,0,.057,0,.112.007.171,0,.032,0,.064.005.1H6.962v3.279ZM10.448,3.288h0a5.935,5.935,0,1,0-.036,11.87h.007a5.935,5.935,0,0,0,.031-11.87Z" transform="translate(0.902 0)" fill="#71cfeb"/>
    <path id="Fill_135" data-name="Fill 135" d="M6.288,18.568H1.575A1.49,1.49,0,0,1,0,17c0-4.6,0-9.645,0-15.416A1.492,1.492,0,0,1,1.552.005c.208,0,.431,0,.7,0H3.379c0,.055,0,.106,0,.153,0,.1,0,.178,0,.261a.928.928,0,0,0,.916.914c.984,0,1.982,0,2.965,0s1.981,0,2.966,0a.928.928,0,0,0,.916-.914c0-.085,0-.169,0-.257,0-.041,0-.083,0-.126l.032-.013a.126.126,0,0,1,.05-.015l.54,0c.195,0,.4,0,.6,0,.283,0,.517,0,.736.013A1.47,1.47,0,0,1,14.52,1.534c0,.681,0,1.373,0,2.043q0,.409,0,.817,0,6.3,0,12.6a1.5,1.5,0,0,1-1.275,1.559,1.891,1.891,0,0,1-.293.016ZM2.6,2.247c-.49,0-.647.16-.647.659V15.689c0,.465.17.639.627.639h9.356c.45,0,.626-.174.626-.619q0-6.413,0-12.825c0-.476-.163-.637-.648-.637Z" transform="translate(10.607 28.666)" fill="#71cfeb"/>
    <path id="Fill_137" data-name="Fill 137" d="M2.6,4.174H.893A.793.793,0,0,1,0,3.3V3.253C0,2.965,0,2.667,0,2.374a.767.767,0,0,1,.8-.793c.117,0,.243,0,.4,0h.642C2.025.561,2.6,0,3.465,0h.024A1.623,1.623,0,0,1,5.078,1.567l.05,0c.054,0,.109.009.164.009H5.8c.148,0,.263,0,.371.006a.749.749,0,0,1,.741.716c.018.387.018.776,0,1.155a.753.753,0,0,1-.7.711,1.839,1.839,0,0,1-.188.006H2.6ZM3.465.613a.988.988,0,0,0-.713.3.879.879,0,0,0-.248.652H4.418A.847.847,0,0,0,4.187.928.985.985,0,0,0,3.475.613Z" transform="translate(14.407 25.371)" fill="#71cfeb"/>
    <path id="Fill_139" data-name="Fill 139" d="M5.236,1.643c-.181.341-.349.63-.49.93a.586.586,0,0,1-.6.363c-1.212-.007-2.424,0-3.637,0-.185,0-.376-.026-.453-.2a.722.722,0,0,1-.035-.453.4.4,0,0,1,.437-.257c1.1,0,2.2-.005,3.3.007A.349.349,0,0,0,4.125,1.8c.251-.5.523-.991.78-1.488A.476.476,0,0,1,5.4,0,.472.472,0,0,1,5.811.4c.227.751.46,1.5.691,2.249.022.071.048.14.085.249.134-.233.249-.423.354-.619a.519.519,0,0,1,.492-.3c.539-.005,1.079-.024,1.618-.033.323-.006.525.165.533.437s-.191.465-.521.473c-.413.009-.826.022-1.24.022a.279.279,0,0,0-.277.171c-.212.387-.439.765-.654,1.151a.47.47,0,0,1-.489.29A.48.48,0,0,1,6,4.094c-.218-.724-.444-1.446-.667-2.168-.024-.078-.051-.155-.092-.283" transform="translate(13.092 37.982)" fill="#71cfeb"/>
    <path id="Fill_141" data-name="Fill 141" d="M3.31,0c.924,0,1.848,0,2.772,0,.378,0,.6.276.492.6A.433.433,0,0,1,6.125.9H4.633Q2.576.9.517.9a.454.454,0,0,1-.5-.346A.45.45,0,0,1,.5,0C1.077,0,1.658,0,2.24,0Z" transform="translate(14.323 32.374)" fill="#71cfeb"/>
    <path id="Fill_143" data-name="Fill 143" d="M1.818,0C2.259,0,2.7,0,3.142,0c.32,0,.519.178.52.451S3.462.9,3.143.9Q1.829.906.515.9C.193.9,0,.73,0,.453S.188,0,.515,0c.434,0,.869,0,1.3,0" transform="translate(14.325 34.057)" fill="#71cfeb"/>
  </g>
</svg>
