<svg xmlns="http://www.w3.org/2000/svg" width="23.094" height="23.094" viewBox="0 0 23.094 23.094">
  <path id="twitter" d="M17.19,8.381a3.553,3.553,0,0,0,1.046-1.455c-.5.175-.958.356-1.427.486a.616.616,0,0,1-.473-.114,2.794,2.794,0,0,0-2.825-.536,2.659,2.659,0,0,0-1.832,2.2,7.329,7.329,0,0,0-.009,1.11,7.717,7.717,0,0,1-3.233-.842A8.376,8.376,0,0,1,5.81,7.134a2.888,2.888,0,0,0,.8,3.709l-.051.074-1.143-.28a3.114,3.114,0,0,0,2.155,2.789l-1.122.057a2.954,2.954,0,0,0,2.619,1.91A5.9,5.9,0,0,1,5.024,16.6c.18.122.252.182.334.223a7.846,7.846,0,0,0,8.212-.265,7.908,7.908,0,0,0,3.71-6.839.721.721,0,0,1,.278-.584c.373-.327.705-.7,1.055-1.051l-.053-.057-1.37.35ZM23.1,11.97v7.207a4.274,4.274,0,0,1-4.323,4.341H4.322A4.271,4.271,0,0,1,0,19.213V4.726A4.271,4.271,0,0,1,4.286.424H18.809a4.273,4.273,0,0,1,4.285,4.3q0,3.621,0,7.243Z" transform="translate(-0.001 -0.424)" fill="#242b5a" fill-rule="evenodd"/>
</svg>
