<svg id="ic_work" xmlns="http://www.w3.org/2000/svg" xmlns:xlink="http://www.w3.org/1999/xlink" width="82.275" height="69.627" viewBox="0 0 82.275 69.627">
  <defs>
    <clipPath id="clip-path">
      <path id="Clip_12" data-name="Clip 12" d="M0,0H29.022V33.563H0Z" fill="none"/>
    </clipPath>
  </defs>
  <g id="np_medicine-chest_1539043_000000" transform="translate(0 0)">
    <path id="Shape" d="M6.99,69.627l-.041,0H6.9a6.9,6.9,0,0,1-6.9-6.9V20.112a6.9,6.9,0,0,1,6.9-6.9h18.53V8.543A8.552,8.552,0,0,1,33.969,0h14.3a8.552,8.552,0,0,1,8.543,8.543v4.672H75.374a6.9,6.9,0,0,1,6.9,6.9l0,42.618a6.9,6.9,0,0,1-6.9,6.9H6.99ZM77.437,57.018a8.472,8.472,0,0,0-8.009,7.774h5.946a2.068,2.068,0,0,0,2.066-2.066ZM6.9,18.045a2.069,2.069,0,0,0-2.067,2.066V52.187a13.3,13.3,0,0,1,12.852,12.6H64.589a13.3,13.3,0,0,1,12.851-12.6l0-32.076a2.069,2.069,0,0,0-2.067-2.066ZM4.829,57.018v5.708A2.069,2.069,0,0,0,6.9,64.792h5.942A8.467,8.467,0,0,0,4.829,57.018ZM33.966,4.831a3.716,3.716,0,0,0-3.712,3.712v4.672H51.976V8.543a3.716,3.716,0,0,0-3.712-3.712Z" transform="translate(0)" fill="#71cfeb"/>
  </g>
  <g id="logo-icon" transform="translate(25.504 23.516)">
    <path id="Fill_1" data-name="Fill 1" d="M1.61,6.754l4.7-5.1C7.143.747,5.8-.606,4.963.3L.261,5.4c-.831.9.515,2.255,1.349,1.349" transform="translate(12.926 8.973)" fill="#72cee9"/>
    <path id="Fill_3" data-name="Fill 3" d="M.283,1.628,5.171,6.464A.955.955,0,0,0,6.52,5.114L1.633.278A.955.955,0,0,0,.283,1.628" transform="translate(7.665 12.823)" fill="#72cee9"/>
    <path id="Fill_5" data-name="Fill 5" d="M0,.923C.012,3.214.024,3.2.036,5.5a.955.955,0,0,0,1.908,0C1.933,3.2,1.921,3.214,1.908.923A.955.955,0,0,0,0,.923" transform="translate(7.027 24.119)" fill="#72cee9"/>
    <path id="Fill_7" data-name="Fill 7" d="M.923,1.945c2.292-.012,1.863-.024,4.155-.036A.955.955,0,0,0,5.077,0C2.786.012,3.214.024.923.036a.955.955,0,0,0,0,1.908" transform="translate(5.067 26.253)" fill="#72cee9"/>
    <path id="Fill_9" data-name="Fill 9" d="M1.624,6.876l5.1-5.239c.858-.88-.49-2.231-1.349-1.35L.275,5.526c-.858.88.49,2.231,1.349,1.349" transform="translate(12.913 16.71)" fill="#72cee9"/>
    <g id="Group_13" data-name="Group 13" transform="translate(0 0)">
      <path id="Clip_12-2" data-name="Clip 12" d="M0,0H29.022V33.563H0Z" fill="none"/>
      <g id="Group_13-2" data-name="Group 13" clip-path="url(#clip-path)">
        <path id="Fill_11" data-name="Fill 11" d="M28.844,11.379C27.614,4.187,20.752.215,14.592.005A.812.812,0,0,0,14.5,0l-.014.239L14.437,0a1.251,1.251,0,0,0-.171.012A14.863,14.863,0,0,0,1.532,7.332c-3.418,6.16-.411,12.36,2.149,16.487a1.133,1.133,0,0,0,1.018.562,1.317,1.317,0,0,0,1.092-.666A1.074,1.074,0,0,0,5.734,22.6C3.146,18.43.869,13.494,3.6,8.526A12.447,12.447,0,0,1,14.465,2.387c5.71.149,11.823,4.135,12.168,10.545.283,5.257-3.248,11.281-10.506,17.915a.734.734,0,0,1-.592.159c-.172-.071-.31-.331-.4-.752a6.2,6.2,0,0,1-.082-1.376l.036-8.686a1.2,1.2,0,0,0-.036-.294V7.328a1.194,1.194,0,0,0-2.385,0v15.24l-.018.758c-.049,2.091-.1,4.254.018,6.362a4.652,4.652,0,0,0,1.291,3.3,2.3,2.3,0,0,0,1.494.573,3.474,3.474,0,0,0,2.032-.8,1.239,1.239,0,0,0,.3-.2C23.577,27.271,30.2,19.3,28.844,11.379" transform="translate(0)" fill="#222d5f"/>
      </g>
    </g>
  </g>
</svg>
