<svg xmlns="http://www.w3.org/2000/svg" width="74.957" height="79.934" viewBox="0 0 74.957 79.934">
  <g id="price" transform="translate(-0.015 -0.038)">
    <path id="Trazado_411" data-name="Trazado 411" d="M74.216,46.85A7.408,7.408,0,0,1,73.649,50a6.75,6.75,0,0,1-.765,1.393,6.308,6.308,0,0,1-.491.625c-.166.183-.39.427-.492.518l-3.027,2.88L65,59.067q-3.682,3.907-7.5,7.682l-3.8,3.76-.957.934q-.57.55-1.192,1.042h0a14.814,14.814,0,0,1-8.74,3.157H40.082l-2.666-.074-10.667-.293c-3.008-.075-5.984-.267-8.809-.61l0,0a51.368,51.368,0,0,1-5.725,3.858c-1.309.742-2.367,1.058-2.276.09a4.734,4.734,0,0,1,1.126-2.174l4.766-4.775a2.517,2.517,0,0,1,1.742-.71c7.5,0,14.95-.075,22.409,0h2.666a10.756,10.756,0,0,0,6.243-2.324c.54-.426,1.283-1.143,1.95-1.751L52.96,65q2.063-1.84,4.167-3.633l9.85-10.2L68.2,49.89l.615-.642v0a3.213,3.213,0,0,0,.342-.437,2.88,2.88,0,0,0-4.092-3.932,2,2,0,0,0-.247.2l-.059.049-.1.1-.2.193-3.19,3.05-6.448,6.009,0,0a14.87,14.87,0,0,1-3.151,2.334,6.89,6.89,0,0,1-5.69,5.342,7.457,7.457,0,0,1-1.2.074h-.833L42.2,62.159a31.588,31.588,0,0,1-10.826-2.074c-.95-.4-1.582-.925-1.09-1.55v0a2.436,2.436,0,0,1,1.526-.739c2.793.075,5.6.085,8.408.065h4.206a3.827,3.827,0,0,0,.677,0,2.237,2.237,0,0,0,.482-.133,2.313,2.313,0,0,0,.833-.55,2.5,2.5,0,0,0,.71-1.843,2.621,2.621,0,0,0-.892-1.839,2.744,2.744,0,0,0-.94-.55,3.214,3.214,0,0,0-.577-.133l-1.042-.085q-2.088-.177-4.166-.45c-6.166.167-12.334.427-18.51.476H19.574A10.261,10.261,0,0,0,18.4,52.8a9.8,9.8,0,0,0-2.282.5A9.529,9.529,0,0,0,13.041,55l-1.075.956c-1.592,1.416-3.183,1.908-4.023,1.26s-.127-2.324,1.224-3.883l.9-1.032a12.819,12.819,0,0,1,1.153-1.143,12.649,12.649,0,0,1,5.966-2.91,13.508,13.508,0,0,1,1.667-.208h1.491q5.489,0,10.993.15l3.466.143c2.334-.108,4.668-.15,7-.15h1.751c.625,0,1.026,0,2.019.065h0a7.175,7.175,0,0,1,4.476,2.366,6.9,6.9,0,0,1,1.267,2.061c.218-.257.442-.511.673-.768q2.826-3.1,5.726-6.133l2.917-3.024L61.357,42c.092-.1.342-.325.518-.491s.417-.332.625-.492v0A7.6,7.6,0,0,1,65.433,39.8a7.456,7.456,0,0,1,8.766,7.09l.016-.043Z" fill="#85d4ed" stroke="#85d4ed" stroke-width="1.5"/>
    <path id="Trazado_412" data-name="Trazado 412" d="M56.716,23.558l.143-.293.065-.143.108-.234,0,0a4.88,4.88,0,0,0,.316-1.042,5.049,5.049,0,0,0-3.135-5.69l-.492-.192L51.748,15.2l-2.939-1.117-.674-3.457L47.66,8.259a4.893,4.893,0,0,0-5.833-3.691L39.5,5.2l-3.626.983L33.692,4.167l-1.459-1.35-.748-.69a4.6,4.6,0,0,0-1.3-.834,4.67,4.67,0,0,0-4.1,0,4.514,4.514,0,0,0-.918.582,3.29,3.29,0,0,0-.4.368l-.3.316-.918.993-2.714,3.04L17.35,6.01l-1.19-.176-.577-.091L15.29,5.7l-.358-.049h0a5.409,5.409,0,0,0-5.993,4.792L8.76,12.885l-.225,3.274-2.89,1.56L3.509,18.858A5.494,5.494,0,0,0,1.543,26.4l1.309,2.057L4.626,31.24,3.542,33.483l-.834,1.75-.426.834-.049.108-.09.2a3.554,3.554,0,0,0-.16.417,5.506,5.506,0,0,0,2.874,6.761l3.717,1.533a6.92,6.92,0,0,0,2.97.374c1.09-.234.165-1.175-1.358-2.2Q8.6,42.186,6.953,41.217c-.267-.166-.608-.342-.833-.492h0a2.494,2.494,0,0,1-.55-.56,2.2,2.2,0,0,1-.4-1.39,2.085,2.085,0,0,1,.149-.667,2.148,2.148,0,0,1,.16-.293l.25-.426L6.81,35.546q1.089-1.89,2.116-3.815a1.507,1.507,0,0,0,0-1.448l-.075-.124c-.677-1.152-1.35-2.344-2.093-3.493l-.925-1.6-.475-.785v0a1.172,1.172,0,0,1-.14-.358,1.1,1.1,0,0,1,.472-1.168l6.283-3.216h0a2.01,2.01,0,0,0,1.084-1.615v-.091l.39-4.668.193-2.26a.7.7,0,0,1,.807-.592l2.233.332,4.642.674v0a2.352,2.352,0,0,0,2.142-.833l3-3.59,1.449-1.735A.54.54,0,0,1,28.334,5a.57.57,0,0,1,.416.133l1.667,1.533,3.45,3.184.066.065a2.21,2.21,0,0,0,2.093.5l.934-.257,3.21-.749,1.6-.374.833-.192L42.8,8.8h.118l-.007,0a.583.583,0,0,1,.436.244.533.533,0,0,1,.082.225l.224,1.325L44.6,16.1A2.5,2.5,0,0,0,46.133,18l4.349,1.752,2.083.833v0a.418.418,0,0,1,.218.544l-.957,2.04-1.975,4.242v.082a2.387,2.387,0,0,0,.182,2.327L53.3,34.732l.625.935a.632.632,0,0,1,.1.315.767.767,0,0,1-.316.658c-3.333,1.982-5.993,4.066-5.176,4.941.368.4,1.26.443,2.5.16a15.483,15.483,0,0,0,2.126-.667c.394-.15.8-.32,1.224-.508l.65-.3.333-.16.176-.09.257-.15h0a4.72,4.72,0,0,0,2.26-3.766,4.827,4.827,0,0,0-.427-2.26c-.085-.175-.182-.35-.267-.507l-.182-.31L56.81,32.4l-2.477-4.066L56.159,24.7l.557-1.143Z" fill="#bae4f0" stroke="#bae4f0" stroke-width="1.5"/>
    <path id="Trazado_413" data-name="Trazado 413" d="M32.983,38.9a3.541,3.541,0,0,1-3.04,1.667,3.332,3.332,0,0,1-3.11-1.6c-.107-.166-.657-.267-1-.267-.667,0-1.068.508-1.058,1.309a4.637,4.637,0,0,0,2.11,3.656,5.864,5.864,0,0,0,2.356.96,7.11,7.11,0,0,0,2.624,0,7.412,7.412,0,0,0,6.21-7.334,6.768,6.768,0,0,0-1.008-3.65,7.892,7.892,0,0,0-2.591-2.5,12.25,12.25,0,0,0-2.894-1.285c-.466-.143-1-.267-1.4-.358s-.716-.166-1.058-.267a9.969,9.969,0,0,1-1.849-.716,3.04,3.04,0,0,1-.934-1.107,2.24,2.24,0,0,1-.2-.918,3.19,3.19,0,0,1,.156-1.1,2.975,2.975,0,0,1,1.309-1.615A4.918,4.918,0,0,1,30,23.093a4.286,4.286,0,0,1,2.376.716,6.54,6.54,0,0,0,1.283.71,1.758,1.758,0,0,0,1.458,0,1.515,1.515,0,0,0,.781-1.384,3.2,3.2,0,0,0-1.022-2.21,7.748,7.748,0,0,0-2.692-1.758,1.669,1.669,0,0,0-.143-.775c.048-.117.107-.225.143-.342a2.281,2.281,0,0,0-.25-2.158c-.15-.2-.733-.374-1.892-.358s-1.833.16-1.96.368v0a2.155,2.155,0,0,0-.433,1.136,8.7,8.7,0,0,0,.443,1.715A7.68,7.68,0,0,0,24.685,20.1a7.781,7.781,0,0,0-1.667,1.667A7.658,7.658,0,0,0,21.967,23.9a7.908,7.908,0,0,0-.3,2.259,6.967,6.967,0,0,0,.45,2.35A6.652,6.652,0,0,0,23.4,30.55a8.18,8.18,0,0,0,1.745,1.374,12.94,12.94,0,0,0,3.672,1.41c.56.24.967.4,1.373.608h0a12.523,12.523,0,0,1,1.149.615,5.293,5.293,0,0,1,1.6,1.377,2.293,2.293,0,0,1,.391,1.358,4.018,4.018,0,0,1-.091.833,3.172,3.172,0,0,1-.26.775Z" fill="#bae4f0" stroke="#bae4f0" stroke-width="1.5"/>
  </g>
</svg>
