<svg xmlns="http://www.w3.org/2000/svg" width="50.8" height="89.043" viewBox="0 0 50.8 89.043">
  <g id="smartphone" transform="translate(-0.254 2.442)">
    <path id="Shape" d="M43.2,86H6.4a7.344,7.344,0,0,1-4.479-1.814A5.823,5.823,0,0,1,0,80.267V5.733A5.957,5.957,0,0,1,2.025,1.721,6.749,6.749,0,0,1,6.4,0H43.2a7.34,7.34,0,0,1,4.479,1.814A5.819,5.819,0,0,1,49.6,5.733V80.267a5.823,5.823,0,0,1-1.921,3.92A7.319,7.319,0,0,1,43.2,86ZM3.091,72.145v7.834a2.973,2.973,0,0,0,1.28,2.486,4.362,4.362,0,0,0,2.453.765H42.982A3.513,3.513,0,0,0,46.5,80.174V72.148C32,72.145,17.3,72.145,3.091,72.145Zm0-57.334V69.376H46.5V14.811ZM6.6,2.773h0a3.734,3.734,0,0,0-2.471.919A2.892,2.892,0,0,0,3.091,5.83v6.211H46.5V5.83a3.513,3.513,0,0,0-3.521-3.056H6.6Z" transform="translate(0.854)" fill="#85d4ed" stroke="#85d4ed" stroke-miterlimit="10" stroke-width="1.2"/>
    <path id="Path" d="M.66.108A.949.949,0,0,1,1.193,0H11.435A1.127,1.127,0,0,1,12.5.854a1,1,0,0,1-.958,1.279H1.2A1.134,1.134,0,0,1,.131,1.175C-.194.746.126.321.66.108Z" transform="translate(19.395 7.146)" fill="#85d4ed" stroke="#85d4ed" stroke-miterlimit="10" stroke-width="1.2"/>
    <g id="Group_18" data-name="Group 18" transform="translate(13 24)">
      <path id="Shape-2" data-name="Shape" d="M19.827,36.374H0V0H27.221V28.747c-1.233,1.29-2.485,2.572-3.7,3.813s-2.465,2.524-3.7,3.814ZM2.228,2.227h0v31.8H17.014V26.048h7.98V2.228H2.228ZM19.362,28.394v5.28c.88-.88,1.744-1.775,2.58-2.64s1.7-1.761,2.581-2.641Z" transform="translate(0 0)" fill="#bae4f0" stroke="#bae4f0" stroke-miterlimit="10" stroke-width="1.32"/>
      <path id="Path-2" data-name="Path" d="M0,0H15.96V2.227H0Z" transform="translate(5.747 5.627)" fill="#bae4f0" stroke="#bae4f0" stroke-miterlimit="10" stroke-width="1.32"/>
      <path id="Path-3" data-name="Path" d="M0,0H15.96V2.227H0Z" transform="translate(5.747 10.207)" fill="#bae4f0" stroke="#bae4f0" stroke-miterlimit="10" stroke-width="1.32"/>
      <path id="Path-4" data-name="Path" d="M0,0H15.96V2.227H0Z" transform="translate(5.747 14.667)" fill="#bae4f0" stroke="#bae4f0" stroke-miterlimit="10" stroke-width="1.32"/>
      <path id="Path-5" data-name="Path" d="M0,0H15.96V2.227H0Z" transform="translate(5.747 19.24)" fill="#bae4f0" stroke="#bae4f0" stroke-miterlimit="10" stroke-width="1.32"/>
      <path id="Path-6" data-name="Path" d="M0,0H7.98V2.227H0Z" transform="translate(5.747 23.814)" fill="#bae4f0" stroke="#bae4f0" stroke-miterlimit="10" stroke-width="1.32"/>
      <path id="Path-7" data-name="Path" d="M0,0H7.98V2.227H0Z" transform="translate(5.747 28.393)" fill="#bae4f0" stroke="#bae4f0" stroke-miterlimit="10" stroke-width="1.32"/>
    </g>
    <path id="Shape-3" data-name="Shape" d="M4.323,8.773A4.524,4.524,0,0,1,2.309,8.3,4.6,4.6,0,0,1,.175,5.74,4.553,4.553,0,0,1,.6,2.219,4.528,4.528,0,0,1,3.587.082,4.152,4.152,0,0,1,4.41,0,4.083,4.083,0,0,1,6.575.615,4.638,4.638,0,0,1,8.5,2.96a4.471,4.471,0,0,1-.212,3.308A4.228,4.228,0,0,1,5.829,8.51,4.419,4.419,0,0,1,4.323,8.773ZM4.5,2.112a2.278,2.278,0,0,0-.7.1A2.377,2.377,0,0,0,2.2,3.923a2.1,2.1,0,0,0,.855,2.242,2.125,2.125,0,0,0,1.373.5,2.193,2.193,0,0,0,.868-.18A2.239,2.239,0,0,0,6.683,4.777a2.353,2.353,0,0,0-.746-2.133A1.9,1.9,0,0,0,4.5,2.112Z" transform="translate(20.946 73.373)" fill="#85d4ed" stroke="#85d4ed" stroke-miterlimit="10" stroke-width="1.2"/>
  </g>
</svg>
