<svg xmlns="http://www.w3.org/2000/svg" width="23.072" height="22.609" viewBox="0 0 23.072 22.609">
  <path id="facebook_ligthblue" d="M23.524,4.73A4.746,4.746,0,0,0,19.8.674a8.55,8.55,0,0,0-1.749-.2C16.077.451,14.1.466,12.131.466V.457C10.453.457,8.775.448,7.1.46c-.669.005-1.342.02-2.006.09A4.771,4.771,0,0,0,.774,4.325,11.372,11.372,0,0,0,.582,6.58c-.019,3.4-.012,6.8-.005,10.2,0,.6.027,1.2.084,1.791a4.823,4.823,0,0,0,3.861,4.305,10.928,10.928,0,0,0,2.35.182q5.134,0,10.267,0,.96,0,1.918-.083a4.8,4.8,0,0,0,4.4-3.845,10.341,10.341,0,0,0,.172-2.018q.026-5.178,0-10.355a17.112,17.112,0,0,0-.11-2.027M10,12.969H7.68v8.259c-.077,0-.134.008-.192.008-1.041,0-2.082,0-3.123.005-.169,0-.2-.054-.2-.2q.006-3.907,0-7.814v-.246H2.446V10.112H4.168V9.884c.009-.7,0-1.394.033-2.091a3.576,3.576,0,0,1,.415-1.559A2.812,2.812,0,0,1,6.764,4.8a7.954,7.954,0,0,1,1.2-.1c.705-.016,1.412,0,2.118,0h.2V7.557c-.177,0-.345,0-.514,0-.431.006-.863,0-1.295.026a.708.708,0,0,0-.777.763c-.021.553-.015,1.107-.021,1.661a.841.841,0,0,0,.016.1H10.31L10,12.969" transform="translate(-0.57 -0.454)" fill="#85d4ed" fill-rule="evenodd"/>
</svg>
