<svg xmlns="http://www.w3.org/2000/svg" width="23.072" height="22.608" viewBox="0 0 23.072 22.608">
  <path id="linkedin_ligthblue" d="M23.594,4.7A4.746,4.746,0,0,0,19.869.643a8.563,8.563,0,0,0-1.75-.2C16.147.42,14.175.436,12.2.436V.426c-1.678,0-3.356-.008-5.034,0C6.5.435,5.826.45,5.162.52A4.77,4.77,0,0,0,.844,4.294,11.426,11.426,0,0,0,.652,6.549c-.019,3.4-.012,6.8-.005,10.2,0,.6.027,1.2.084,1.79a4.823,4.823,0,0,0,3.861,4.305,10.876,10.876,0,0,0,2.35.182q5.135,0,10.268,0,.96,0,1.918-.083a4.8,4.8,0,0,0,4.4-3.844A10.3,10.3,0,0,0,23.7,17.08q.025-5.178,0-10.355a17.274,17.274,0,0,0-.11-2.027ZM3.1,20.466H7.081V8.678H3.1ZM7.293,5.532A1.939,1.939,0,0,1,5.662,7.023a3.965,3.965,0,0,1-.486.059,2.228,2.228,0,0,1-2.006-.928,2.027,2.027,0,0,1,1.483-3.13,2.49,2.49,0,0,1,1.87.383,1.924,1.924,0,0,1,.768,2.125ZM21.52,20.207v.254H17.513v-.234c0-2,.009-4.008-.007-6.012a5.745,5.745,0,0,0-.16-1.272,1.693,1.693,0,0,0-1.322-1.378,2.11,2.11,0,0,0-2.076.586,2.322,2.322,0,0,0-.644,1.718c.008,2.109,0,4.219,0,6.329v.267h-4V8.678h4V10.24l.041.012c.091-.119.18-.238.273-.355a3.839,3.839,0,0,1,2.837-1.481,4.873,4.873,0,0,1,2.777.527A4.2,4.2,0,0,1,21.278,11.7a7.115,7.115,0,0,1,.242,1.881q0,3.313,0,6.627Z" transform="translate(-0.64 -0.423)" fill="#85d4ed" fill-rule="evenodd"/>
</svg>
